<svg xmlns="http://www.w3.org/2000/svg" viewBox="0 0 636.175 602.601"><g id="Слой_2" data-name="Слой 2"><g id="Слой_1-2" data-name="Слой 1"><g id="Слой_2-2" data-name="Слой 2"><g id="Слой_1-2-2" data-name="Слой 1-2"><path d="M565.588,225.071l8.381,80.278-5.333,31.22,1.236,5.44c.839,3.687-1.8,7.918-7.061,12.25a22.187,22.187,0,0,1-3.828,2.878c-11.58,7.859-31.2,15.7-54.183,20.93s-44.092,6.642-57.906,4.558a22.186,22.186,0,0,1-4.7-.94c-6.641-1.626-10.825-4.305-11.664-7.992l-1.237-5.44-18.309-25.844L383.83,266.4,382,258.372c-3.312-14.567,34.7-35.615,84.885-47.026s93.561-8.87,96.874,5.7Z" fill="#dc0c15"/><path d="M467.938,149.13c-.438-.652-.877-1.244-1.065-1.629-1.194-1.9-2.934-4.477-3.263-5.152-3.182-4.923-11.11-6.243-22.006-4.471-8.7-14.138-22.874-36.674-40.628-62.745C370.818,30.885,346.056,0,346.056,0l-1.133.553S374.878,39.5,399.77,75.842c15.281,22.354,30.675,46.712,40.345,62.226-2.019.389-4.146.862-6.346,1.429-.852-1.315-1.881-2.872-2.093-3.306-1.679-2.642-5.387-3.815-10.4-3.693a13.408,13.408,0,0,0-20.109,4.6,165.976,165.976,0,0,0-30.176,15.461,161.069,161.069,0,0,0-14.2,9.922,16.708,16.708,0,0,0-22.056,22.06c-4.632,6.771-6.352,12.536-4.034,16.18.284.4,1.265,1.979,2.105,3.27l-1.747,2.167c-1.688-3.026-3.494-6.113-5.408-9.3A346.377,346.377,0,0,0,298.4,157.582l-1.229.6s15.386,20.064,27.108,39.351c1.973,3.244,3.91,6.537,5.763,9.84-.57.727-1.093,1.489-1.567,2.169-4.335-7.285-11.44-18.649-20.7-31.5a340.314,340.314,0,0,0-30.418-36.838l-1.074.674s17.018,18.7,30.3,36.957c8.281,11.327,16.213,24.018,21.022,31.966-5.959,8.942-8,16.564-4.91,21.414.4.639,2.07,3.257,3.335,5.176.39.675.805,1.219.993,1.6,1.171,1.786,2.615,3.947,2.909,4.549,2.6,4.042,8.489,5.643,16.567,5.069a21.733,21.733,0,0,0,5.643-.668c16.326-2.693,39.167-12.272,62.393-27.113s41.538-31.55,50.876-45.246a27.073,27.073,0,0,0,3-4.867c3.915-7.137,4.918-13.149,2.34-17.2C470.385,152.978,468.99,150.794,467.938,149.13ZM352.845,179.937a6.849,6.849,0,1,1-.026-.05Z" fill="#dc0c15"/><path d="M399.071,246.3a15.877,15.877,0,0,1,10.864,29.183l-29.711,96.37-13.973-4.293L393.956,277.7a19.877,19.877,0,0,1-2.482-.443l-28.759,93.325-6.56-2.016L385.344,273.9a15.851,15.851,0,0,1,13.676-27.309Z" fill="#dc0c15"/><path d="M381.5,348.557a15.851,15.851,0,0,1-8.893,29.719l-59.238,44.66-5.909-1.792,51.139-50.767a13.594,13.594,0,0,1-1.644-1.909l-52.457,54.285-2.773-.827,52.394-59.882A15.851,15.851,0,0,1,381.5,348.557Z" fill="#dc0c15"/><path d="M544.475,217.5a15.851,15.851,0,0,0-5.063,28.656,16.1,16.1,0,0,0,5.683,2.256l63.252,78.582,11.393-9.164-59.065-73.236a14.479,14.479,0,0,0,2.073-1.407l61.284,75.977,5.349-4.3-62.1-77.166a15.851,15.851,0,0,0-22.826-20.307Z" fill="#dc0c15"/><path d="M606.788,303.442a15.877,15.877,0,0,0-1.584,26.3l14.228,72.732,5.578,2.638-4.059-71.8a18.715,18.715,0,0,0,2.668-.36l2.524,75.449,2.616,1.221,1.162-79.56a18.116,18.116,0,0,0-23.133-26.618Z" fill="#dc0c15"/><path d="M452.581,197.87l1.376,1.316c.156.148.107.509-.128,1.027q.358-.1.513.045l1.358,1.3c.271.259-.05,1.139-.837,2.39h0l1.377,1.316c.271.259-.07,1.12-.857,2.371h0l1.377,1.316c.271.259-.069,1.121-.856,2.372h0l1.357,1.3c.814.779-3.418,6.49-9.458,12.812s-11.571,10.83-12.386,10.052l-1.357-1.3c-.271-.26.069-1.121.837-2.391h0l-1.377-1.315c-.271-.259.051-1.1.838-2.352h0l-1.377-1.316c-.271-.259.051-1.1.838-2.352h0l-1.357-1.3c-.155-.148-.107-.51.09-1.026a.422.422,0,0,1-.475-.046l-1.377-1.316a.515.515,0,0,1-.068-.51c-.526.239-.885.3-1.04.156l-1.455-1.389a.376.376,0,0,1-.174-.167c-.768.454-1.3.617-1.508.414l-1.358-1.3h0c-1.047.669-1.761.95-2.013.71l-1.358-1.3c-.077-.074-.066-.4-.066-.4-.655.375-1.127.481-1.3.314l-1.377-1.315c-.1-.093-.2-.337-.068-.473-.544.259-.922.343-1.1.177l-1.358-1.3c-.116-.111-.237-.412-.07-.587-.469.22-.809.265-.965.117l-1.357-1.3a.458.458,0,0,1-.052-.606c-.45.2-.772.265-.927.116l-1.376-1.315c-.136-.13-.1-.4.039-.779-.395.142-.66.186-.8.056l-1.377-1.315c-.116-.111-.1-.4.04-.779-.376.161-.66.186-.8.056l-1.357-1.3c-.8-.76,3.455-6.529,9.476-12.831s11.572-10.792,12.367-10.033l1.358,1.3c.135.13.123.415,0,.778.358-.141.642-.166.758-.055l1.377,1.315c.135.13.1.4,0,.778.358-.141.622-.185.758-.055l1.377,1.315c.116.111.12.3.052.606.45-.2.771-.264.926-.116l1.358,1.3c.116.111.1.32.052.606.469-.22.828-.285.983-.136l1.357,1.3q.137.13.069.511c.543-.3.94-.363,1.095-.215l1.358,1.3a.461.461,0,0,1,.084.378c.637-.356,1.089-.48,1.283-.3l1.358,1.3h0c1.047-.669,1.761-.951,2.013-.71l1.358,1.3a.373.373,0,0,1,.082.263c.767-.453,1.314-.6,1.508-.413l1.377,1.315a.424.424,0,0,1,.05.53A1.527,1.527,0,0,1,452.581,197.87Z" fill="#dc0c15"/><path d="M320.527,417.182a8.233,8.233,0,0,0-9.4-6.857c-3.218.484-9.963,4.328-11.82,4.75a8.234,8.234,0,0,0,2.541,16.255,8.234,8.234,0,0,0,16.255-2.541C317.93,427.536,321.041,420.53,320.527,417.182Z" fill="#dc0c15"/><path d="M315.2,438.256l-18.541,17.257h0a2.279,2.279,0,0,1-3.215.237h0a2.306,2.306,0,0,1-.237-3.216L307.56,431.67a5.1,5.1,0,0,1,7.113-.527h0A5.068,5.068,0,0,1,315.2,438.256Z" fill="#dc0c15"/><path d="M298.309,458.307a4.024,4.024,0,0,1-5.658.6l-17.118-13.7a1.8,1.8,0,0,1-.76-2.394h0a1.8,1.8,0,0,1,2.513-.253l19.369,10.349a4.05,4.05,0,0,1,1.663,5.389h0Z" fill="#dc0c15"/><path d="M295.083,415.239l-22.975,10.725a2.28,2.28,0,0,0-1.441,2.858h0a2.281,2.281,0,0,0,2.884,1.434l24.762-5.41a5.07,5.07,0,0,0,3.163-6.413h0A5.069,5.069,0,0,0,295.083,415.239Z" fill="#dc0c15"/><path d="M269.5,427.684l-7.109,20.87a1.851,1.851,0,0,0,.565,2.484h0a1.85,1.85,0,0,0,2.269-1.148l10.664-19.148a4.049,4.049,0,0,0-1.458-5.444h0A4,4,0,0,0,269.5,427.684Z" fill="#dc0c15"/><path d="M304.6,431.817,283.979,446.59l-.006.005a2.254,2.254,0,0,1-3.179-.215h0a2.279,2.279,0,0,1,.211-3.211l16.909-18.86a5.069,5.069,0,0,1,7.145.47h0A5.041,5.041,0,0,1,304.6,431.817Z" fill="#dc0c15"/><path d="M284.536,447.11,263.022,451.4a1.825,1.825,0,0,1-2.328-.986h0a1.8,1.8,0,0,1,1.427-2.083l20.416-8.013a4.024,4.024,0,0,1,5.233,2.171h0A4.05,4.05,0,0,1,284.536,447.11Z" fill="#dc0c15"/><path d="M629.25,400.046l-.008-.015a8.207,8.207,0,0,0-11.041-3.578c-3.018,1.484-8.049,7.3-9.752,8.158q-.264.123-.519.264a8.234,8.234,0,0,0,7.98,14.4,8.213,8.213,0,0,0,14.649-7.429C630.023,410.707,630.83,403.125,629.25,400.046Z" fill="#dc0c15"/><path d="M628.3,414.211a5.068,5.068,0,0,1,2.9,6.557l-11.833,22.4c-.014.036-.029.071-.045.107a2.28,2.28,0,0,1-3.013,1.147h0l-.014,0a2.254,2.254,0,0,1-1.272-2.921l6.673-24.464a5.1,5.1,0,0,1,6.554-2.846h0Z" fill="#dc0c15"/><path d="M620.033,440.857a4.023,4.023,0,0,1-2.813,4.946l-21.066,6a1.8,1.8,0,0,1-2.4-.795h0l-.006-.023a1.769,1.769,0,0,1,1.271-2.156l19.662-9.7a4.023,4.023,0,0,1,5.352,1.72h0Z" fill="#dc0c15"/><path d="M605.705,406.308l-22.086,12.455a2.28,2.28,0,0,0-1.2,2.985h0a2.308,2.308,0,0,0,2.985,1.2l24.24-7.351.013-.005a5.042,5.042,0,0,0,2.646-6.621h0A5.042,5.042,0,0,0,605.705,406.308Z" fill="#dc0c15"/><path d="M580.454,422.761l2.64,21.768a1.851,1.851,0,0,0,1.666,1.925h0a1.824,1.824,0,0,0,1.519-2.042l1.169-21.873a4.022,4.022,0,0,0-3.677-4.223h0A4.022,4.022,0,0,0,580.454,422.761Z" fill="#dc0c15"/><path d="M618.638,422.221,602.6,441.846a2.279,2.279,0,0,1-3.137.665h0a2.28,2.28,0,0,1-.664-3.138l11.37-22.667a5.071,5.071,0,0,1,6.979-1.491h0A5.1,5.1,0,0,1,618.638,422.221Z" fill="#dc0c15"/><path d="M600.143,443.743l-21.861,1.889a1.8,1.8,0,0,1-2.21-1.234h0a1.8,1.8,0,0,1,1.68-1.9l21.191-5.617a4.05,4.05,0,0,1,4.914,2.862h0A4.049,4.049,0,0,1,600.143,443.743Z" fill="#dc0c15"/><path d="M487.5,445.713s-.177-10.02-.252-19.9c-.009-10.845,3.954-41.819,3.954-41.819a2.8,2.8,0,0,0-2.328-2.78l-45.434,1.694c-1.045-.043-1.392,1.2-.807,2.651a325.247,325.247,0,0,0,12.47,37.343,93.643,93.643,0,0,0,14.325,22.334,1.343,1.343,0,0,0,1.062.93l16.357.406A.758.758,0,0,0,487.5,445.713Z" fill="#dc0c15"/><path d="M562.282,427.385s-5.739-8.228-11.454-16.277c-6.383-8.8-27.839-31.513-27.839-31.513-.791-1.311-.692-2.933.262-3.58l37.892-25.359c.755-.512,1.861.164,2.26,1.708a326.336,326.336,0,0,1,11.729,37.573,93.346,93.346,0,0,1,1.586,26.432,1.386,1.386,0,0,1-.324,1.386l-13.009,9.919C563.067,427.922,562.619,427.74,562.282,427.385Z" fill="#dc0c15"/><path d="M540.537,436.636a1.261,1.261,0,0,0,.9-1.539L531.2,353.4c-.574-2.357-2.311-3.822-3.936-3.108l-56.881,24.192c-1.635.688-1.809,2.939-.394,4.943l51.784,64.033a1.235,1.235,0,0,0,1.443.545l17.309-7.37Z" fill="#dc0c15"/></g></g><path d="M314.033,433.138a.75.75,0,0,0-.536.968,15.277,15.277,0,0,0,.665,1.681,3.913,3.913,0,0,1,.288,1.066c.029.577-.073,1.159-.024,1.727,0,0,.613-.366,1.576-1A47.3,47.3,0,0,1,314.033,433.138Z" fill="#dc0c15"/><path d="M314.706,440.481c.011.273-.3.8-.447.8a4.189,4.189,0,0,0-2.42.807l2.587-3.5C314.479,439.22,314.693,439.846,314.706,440.481Z" fill="#dc0c15"/><path d="M362.331,417.4s-6.273-4.251-8.938-4.536-17.592,5.289-17.592,5.289c-10.738,4.895-3.879,10.717-21.375,20.432.033.811.686,2.182-.167,2.7-2.774,1.017-20.106,8.812-18.764,11.449-.232-.389-2.407-4.756-4.445-8.848-.5-1.8-.2-5.033-2.6-5.223-2.833-4.771.1-1.853.876-4.943.158-.469.874-.932.928-1.439.148-2.036-1.122-3.329-2.513-4.523-.974-.041-2.461.132-3-.976-4.557-10.529-4.253-1.315-6.986-7.182q-1.732,1.1-3.573,2.056c2.443,3.933-.448,1.715-.637,4.2-.14,1.811,4.29,5.745,2.137,6.544-1.163.7.374,1.692-1.7,2.333-5.5,3.482-1.112-5.764-10.639.834-5.488,2.72-10.573,6.011-15.989,8.819-5.651,2.865-13.858,5-15,12.164-3.832,3.568-12.766,4.222-13.9,9.725-1.126,2.082-4.315,2.6-6.234,3.95l.063.259c2.583.06,4.927-2.053,7.437-2.112,5.033,1.168,9.088-3.089,13.456-4.886,1.032-.533,1.939-1.211,3.341-.679,6.644,2.249,11.981-3.57,17.687-6.083,3.126-2.173,22.21-9.816,21.093-12.718-1.712-2.815.841-3.728,3.1-4.667.229,1.239,1.223.478,1.9.132a156.664,156.664,0,0,0,10.372,20.609c2.055,3.593,2.672,9.637,7.106,10.886,2.59,2.613,7.858,12.664,10.972,12.427,30.558,13.9,13.39,3.167,31.373-5.17,0,.012,1.859-.3,1.862-.293l25.963-15.1,5.817-22.509ZM230.48,463.313c-2.064.969-5.744,4.708-7.126,1.179-.3-2.578,3.713-3.074,5.373-4.354C230.761,459.1,232.106,462.445,230.48,463.313Zm47.057-35.074c-.183-.171-.31-.295-.521-.489.012.263.018.395.029.577-.951-.514-.39-1.148-.193-1.771C277.781,426.806,277.8,427.422,277.537,428.239Zm2.75-2.482c-.258-2.035,1.226-.865,1.879.2Z" fill="#dc0c15"/><path d="M463.962,354.383c.518-1.833-5.611-2.68-3.91-.195a3824.221,3824.221,0,0,1-1.231,4.542,1718.841,1718.841,0,0,1-.833,3.021,9403.645,9403.645,0,0,1-.82,3.027,699.232,699.232,0,0,1-.824,3.022,582.547,582.547,0,0,1-.9,3,367.941,367.941,0,0,1-.917,3,.873.873,0,0,0-.455,1.5,30112835675037.5,30112835675037.5,0,0,1-.91,3,1595.16,1595.16,0,0,1-.913,3,286.556,286.556,0,0,1-1,2.961.867.867,0,0,0-.506,1.483.855.855,0,0,0-.5,1.483,210.631,210.631,0,0,0-1.525,4.452,95.106,95.106,0,0,1-1.03,2.953,1488.6,1488.6,0,0,0-1.115,2.926.85.85,0,0,0-.546,1.463,407.361,407.361,0,0,0-1.687,4.391,52.885,52.885,0,0,1-1.158,2.9,643.6,643.6,0,0,1-1.851,4.315,2793.9,2793.9,0,0,1-1.846,4.313,134.273,134.273,0,0,1-1.336,2.814,540.067,540.067,0,0,1-1.364,2.814,67655994679806.84,67655994679806.84,0,0,1-1.354,2.814.865.865,0,0,0-.7,1.386,799.935,799.935,0,0,1-1.49,2.737,133.255,133.255,0,0,1-3.016,5.446.855.855,0,0,0-.82,1.322c-.824.033-1.157.582-.812,1.323a511.064,511.064,0,0,1-2.476,3.951,820.253,820.253,0,0,1-1.789,2.532,336.482,336.482,0,0,1-2.7,3.787,406.823,406.823,0,0,1-1.964,2.4,41.326,41.326,0,0,1-2.983,3.536,665.537,665.537,0,0,1-2.13,2.239,26.147,26.147,0,0,1-2.169,2.164,1139.982,1139.982,0,0,1-2.3,2.047,20.556,20.556,0,0,1-2.36,1.926,40.981,40.981,0,0,1-3.72,2.655,54.458,54.458,0,0,1-3.934,2.3,1489.023,1489.023,0,0,1-2.743,1.291,31.813,31.813,0,0,1-2.819,1.058,16.6,16.6,0,0,1-2.874.862,39.686,39.686,0,0,1-2.928.632,606.344,606.344,0,0,1-2.984.371,131.215,131.215,0,0,1-3.008.1,53.355,53.355,0,0,1-2.994-.169,32.606,32.606,0,0,1-2.964-.42,32.73,32.73,0,0,1-2.935-.665,37.111,37.111,0,0,1-2.879-.891,64,64,0,0,1-2.81-1.1.848.848,0,0,0-1.371-.637.833.833,0,0,0-1.342-.676,40.472,40.472,0,0,1-2.634-1.509.837.837,0,0,0-1.26-.824,34.984,34.984,0,0,1-2.426-1.78c-.3-3.5-5.835,3.147-2.071,2.578a40.839,40.839,0,0,0,4.014,2.815,6.2,6.2,0,0,1,3.6,2.586.983.983,0,0,0,.68-.232,28.107,28.107,0,0,0,2.987,1.332,42.127,42.127,0,0,0,4.658,1.537,41.566,41.566,0,0,0,4.808.987,45.72,45.72,0,0,0,4.92.371,29.651,29.651,0,0,0,4.913-.289.892.892,0,0,0,1.621-.218,78.217,78.217,0,0,0,4.809-1.108,58.46,58.46,0,0,0,4.6-1.682.86.86,0,0,0,1.455-.707.879.879,0,0,0,1.482-.686.867.867,0,0,0,1.441-.767,38.093,38.093,0,0,0,5.43-3.523,53.748,53.748,0,0,0,4.991-4.087,66.093,66.093,0,0,0,4.581-4.506,71.1,71.1,0,0,0,4.21-4.823,905.147,905.147,0,0,1,2.014-2.476,668.812,668.812,0,0,0,3.707-5.189,126.8,126.8,0,0,0,3.441-5.36,1836.294,1836.294,0,0,1,1.671-2.7,305.671,305.671,0,0,0,3.075-5.562,1855.774,1855.774,0,0,1,1.517-2.787A227.531,227.531,0,0,0,439.76,422a798.938,798.938,0,0,1,1.373-2.853,59.13,59.13,0,0,0,1.992-4.318,2719.9,2719.9,0,0,0,1.866-4.362,644.6,644.6,0,0,0,1.862-4.369,1033.217,1033.217,0,0,0,1.693-4.429,4307.963,4307.963,0,0,1,1.123-2.953c.516-.081.742-.332.8-.653a1.068,1.068,0,0,0,.2.225,334.828,334.828,0,0,1-.736,3.04,4828.118,4828.118,0,0,1-.729,3.04,164.384,164.384,0,0,1-.762,3.023,739.94,739.94,0,0,0-1.175,4.539,247.147,247.147,0,0,1-.819,3.007,2490.331,2490.331,0,0,0-1.262,4.5,251.495,251.495,0,0,1-.889,2.993,706.67,706.67,0,0,1-.885,2.992.861.861,0,0,0-.46,1.484.849.849,0,0,0-.465,1.484,201.417,201.417,0,0,0-.955,2.979,218.837,218.837,0,0,1-.993,2.946,215.823,215.823,0,0,1-1.53,4.417.848.848,0,0,0-.526,1.464,184.266,184.266,0,0,1-1.648,4.374,402.778,402.778,0,0,1-1.726,4.335.842.842,0,0,0-.6,1.432,264.43,264.43,0,0,0-1.233,2.859,183.633,183.633,0,0,1-1.294,2.825,67.242,67.242,0,0,1-1.324,2.8,96.595,96.595,0,0,1-2.1,4.142,8342.654,8342.654,0,0,1-1.472,2.722,293.877,293.877,0,0,1-1.558,2.671.84.84,0,0,0-.785,1.315,77.69,77.69,0,0,1-2.532,3.864,108.792,108.792,0,0,1-1.779,2.506,281.07,281.07,0,0,1-1.869,2.429,447.143,447.143,0,0,1-1.975,2.334,283.931,283.931,0,0,1-2.083,2.221,84.428,84.428,0,0,1-2.2,2.082,48.392,48.392,0,0,1-2.318,1.924.845.845,0,0,0-1.208.9.828.828,0,0,0-1.231.836,25.993,25.993,0,0,1-2.57,1.535.837.837,0,0,0-1.325.668.823.823,0,0,0-1.343.6,25.792,25.792,0,0,1-2.793.972,23.078,23.078,0,0,1-2.858.675,23.285,23.285,0,0,1-2.917.321.841.841,0,0,0-1.483.073.813.813,0,0,0-1.457-.052,29.1,29.1,0,0,1-2.951-.321,30.3,30.3,0,0,1-2.875-.664,31.472,31.472,0,0,1-2.841-.9,35.784,35.784,0,0,1-2.764-1.158,46.84,46.84,0,0,1-2.678-1.367,50.641,50.641,0,0,1-2.6-1.557,70.574,70.574,0,0,1-2.5-1.722,59.039,59.039,0,0,1-2.423-1.852,52.946,52.946,0,0,1-2.341-1.966,71.976,71.976,0,0,1-2.245-2.085A79.432,79.432,0,0,1,362.4,477.8a81.408,81.408,0,0,1-2.092-2.247,101.223,101.223,0,0,1-2.013-2.322,76.383,76.383,0,0,1-1.928-2.393,63.122,63.122,0,0,1-1.829-2.46c.64-3.538-6.418,1.506-2.7,1.913a83.93,83.93,0,0,0,3.909,5.064,85.288,85.288,0,0,0,4.262,4.751,81.344,81.344,0,0,0,4.617,4.424,66.226,66.226,0,0,0,3.713,3.059,64.641,64.641,0,0,0,2.611,1.886.893.893,0,0,0,.753,1.058,1.014,1.014,0,0,0,.592-.163,46.74,46.74,0,0,0,4.206,2.422,44.351,44.351,0,0,0,2.954,1.375,31.206,31.206,0,0,0,4.64,1.618,33.825,33.825,0,0,0,3.221.7,27.091,27.091,0,0,0,4.944.422,28.457,28.457,0,0,0,4.958-.414.9.9,0,0,0,1.63-.356,32.448,32.448,0,0,0,4.719-1.513,36.156,36.156,0,0,0,4.4-2.208,1.082,1.082,0,0,0,.44.17.9.9,0,0,0,.943-1.047,43.9,43.9,0,0,0,5.152-3.963A65.547,65.547,0,0,0,419.051,483a106.2,106.2,0,0,0,2.075-2.448,70.974,70.974,0,0,0,3.811-5.132,105.812,105.812,0,0,0,2.608-4.009,94.185,94.185,0,0,0,3.179-5.514,134.271,134.271,0,0,0,2.9-5.639,298.722,298.722,0,0,0,2.676-5.736,257.795,257.795,0,0,0,2.461-5.824,175.09,175.09,0,0,0,2.282-5.885,660.945,660.945,0,0,1,1.082-2.96,193.477,193.477,0,0,0,1.554-4.465,125.347,125.347,0,0,0,1.489-4.489,705.634,705.634,0,0,1,.948-3,262.645,262.645,0,0,0,1.367-4.525,859.931,859.931,0,0,1,.889-3.018,305.44,305.44,0,0,0,.847-3.036c.818-.237,1-.883.4-1.513a124.74,124.74,0,0,0,1.239-4.565c.814-.248.981-.9.375-1.519a271.764,271.764,0,0,0,1.182-4.576,1906.315,1906.315,0,0,0,1.1-4.587,175.889,175.889,0,0,0,1.073-4.6,401.395,401.395,0,0,1,1.035-4.6c1.983-1.028-.561-2.284-1.969-2.286a.892.892,0,0,0-.277-.783,1811.824,1811.824,0,0,0,1.524-4.484,134.378,134.378,0,0,0,1.429-4.522,1013.326,1013.326,0,0,0,1.37-4.531,25747.714,25747.714,0,0,1,1.374-4.531,136.391,136.391,0,0,0,1.291-4.559A2183.544,2183.544,0,0,1,461.6,361.1a1488.946,1488.946,0,0,1,.822-3.045,1135.04,1135.04,0,0,1,.824-3.045A.879.879,0,0,0,463.962,354.383Zm-12.977,42.348c.012.011.019.025.032.036-.02.006-.042.009-.061.015C450.965,396.765,450.977,396.748,450.985,396.731Zm-.753.5a1.162,1.162,0,0,0,.238-.062.659.659,0,0,0-.11.249A1.151,1.151,0,0,0,450.232,397.236Z" fill="#dc0c15"/><circle cx="346.43" cy="183.825" r="5.109" fill="#dc0c15"/><polygon points="342.525 435.103 359.099 422.936 368.189 440.013 363.733 458.916 350.747 465.332 342.525 453.713 342.525 435.103" fill="#e73a3a"/><polygon points="334.862 445.764 334.862 456.304 345.745 467.827 337.892 471.814 322.743 462.959 322.743 448.223 328.268 444.393 334.862 445.764" fill="#e73a3a"/><path d="M219.35,425.089a101.028,101.028,0,0,1,.315,10.883,100.616,100.616,0,0,1-1.8-21.668A100.968,100.968,0,0,1,219.35,425.089Z" fill="#dc0c15"/><path d="M237.69,336.216c-1.609,5.784-3.086,10.425-3.086,10.425s1.132-4.737,2.741-10.521,3.087-10.426,3.087-10.426S239.3,330.431,237.69,336.216Z" fill="#dc0c15"/><path d="M231.71,449.478a40.456,40.456,0,0,1-2.622,4.776,40.333,40.333,0,0,1,4.577-9.861A40.573,40.573,0,0,1,231.71,449.478Z" fill="#dc0c15"/><path d="M256.343,475.919c-5.667-1.983-10.081-4.1-10.081-4.1s4.774,1.093,10.441,3.076S266.785,479,266.785,479,262.01,477.9,256.343,475.919Z" fill="#dc0c15"/><path d="M307.1,524.066a14.7,14.7,0,0,1-2.5-4.935,14.036,14.036,0,0,1,6.715,8.519A14.69,14.69,0,0,1,307.1,524.066Z" fill="#dc0c15"/><path d="M281.025,454.254c-5.961.716-10.859.755-10.859.755s4.768-1.122,10.729-1.838,10.859-.755,10.859-.755S286.986,453.538,281.025,454.254Z" fill="#dc0c15"/><path d="M525.336,569.144a2.475,2.475,0,0,1,0-2.184c2.466-5.327-5.395-2.546-7.863-2.591-2.15-10.844-4.151-21.742-6.294-32.621-.4-2.289-4.659-2.632-6.594-2.708,1.138-.913,1.292-3.038,2.665-3.121,1.2.278,1.379-2,.152-1.783-.983.172-1.127-3.056-1.439-3.547a1.963,1.963,0,0,0-.595,1.585c-1.763-.549-.322-2.79-.561-4.015-.157-.732-1.227-1.261-1.644-.64-.328.49.053,1.246-.321,1.7-.739-.494-.054-2.135-.926-2.311-1.21-.116-.666,2.136-1.71,2.289-.76-2.842-1.216-3.2-2.382-.239a3.372,3.372,0,0,0-1.044-2.537l-1.168,2.151c.251-2.628-2.125-1.983-2.136.086a3.2,3.2,0,0,0-.838-2.043c-.778,3.236-4.052.862-5.534,2.666-1.023,2.521-.376,6.315,2.756,6.657.664.158,1.244,1.408.152,1.7-1.008.065-2.047-.411-2.882.463.587,1.292,2.016,1.021,3.19,1.3-.007.109-.013.229-.01.34-6.875.571-13.768.25-20.606.543-.449-2.551-1.285-2.081-3.379-2.18-1.324-.017-.875-2.334.329-2.024,4.489.571,6.651-9.512,1.436-8.673-2.307.431-2.332-.781-2.772-2.4-1.111-.721-1.741.943-1.467,1.867l-.865-2.67c-1.217,1.576-3.477-1.109-3.368,2.528a5.514,5.514,0,0,0-1.039-2.327,4.025,4.025,0,0,0-1.241,2.239,4.417,4.417,0,0,0-1.118-2.511,3.5,3.5,0,0,0-.952,2.3c.061-2.462-1.066-2.38-2.022-.956-.725,1.079-.554,2.828-.965,4.046-.939-.017-.058-2.274-1-2.259-1.672.706.454,3.681-1.817,4.087-1.5.822,2.345,4.012,3.025,5.189-2.215-.2-4.708-.637-4.122,2.315-3.344-.666-5.561-1.136-7.305,2.289q-9.671,15.513-19.365,30.963c-3.142.517-10.46-1.723-9.373,3.434.487,2.034-1.937,4.6.379,5.873,4.867,2.487,7.1,8.106,10.858,11.89.366.413.631.689.366,1.274-.659,1.079.906,1.137,1.185,1.842-.054,2.352,14.783,9.565,17.415,9.019.2.02.524.119.547.241.789,2.622,3.865,2.845,5.52,4.639,7.9,8.08,18.224-7.621,7.61-12.169,8.155,3.868,17-.416,25.578-.934,4.606,2.031,9.26.561,14.176-.047-.272,5.181,4.92,6.032,8.737,7.38,7.1,3.088,9.735-6.709,8.082-12.03,4-2.857,6.509-8.609,11.185-10.258C525.575,572.093,526.136,570.543,525.336,569.144Z" fill="#dc0c15"/><polygon points="459.614 536.738 451.297 569.292 513.317 565.252 506.426 534.361 459.614 536.738" fill="#e73a3a"/><path d="M273.9,508.19c3.266-3.472-3.648-6.183-6.2-4.92-12.417-10.9-16.445-12.191-32.89-11.41,2.463-2.632-.809-10.858-5.16-10.38.33-3.99.64-7.8.96-11.65,2.652.546,6.292,2.02,6.44-1.19.851-3.19.279-5.608-3.99-6.42-5.4-2.479-6.826-13.2-10.14-18.41-9.523-1.066-18.991-.193-28.46-1.46V422.38h.05c-1.64-10.129,4.2-59.735-4.12-60.95-3.584-2.115-8.733-6.554-13.18-6.2H156.981c.877-63.807-3.545-128.822-21.42-185.188C147.776,227.9,157.772,290.9,154.986,355.23h-8.825c-18.137-44.47-51.041-66.83-98.692-50.366a1,1,0,0,0-.623,1.269c43.95-12.394,77.126,0,97.153,49.1-6.806.234-20.486-2.189-20.3,8.441V465.12a8.485,8.485,0,0,0,.89,3.76l9.8,19.62c1.43,4.07,4.14,4.91,7.33,4.51,0,5.788.009,11.67.01,17.45a4.922,4.922,0,0,0-1.06-1.03c1.63-4.913-4.455-10.823-9.17-8.03a4.773,4.773,0,0,0-6.68-.96,4.354,4.354,0,0,0-2.66-1.37l-.08-.36c2.275-1.228,2.186-5.111.02-6.57,1.113-2.333-.863-4.593-3.49-4.63-.667-3.533-5.313-3.268-7.94-2.49-1.059-2.737-5.72-2.681-8.29-1.81a5.117,5.117,0,0,0-4.89-1.02c-2.468-.177-5.2-1.683-7.47.26a4.307,4.307,0,0,0-5.86-.32,4.214,4.214,0,0,0-5.68-.41,4.138,4.138,0,0,0-5.75-.33,4.926,4.926,0,0,0-6.94-.19,4.834,4.834,0,0,0-6.84.69c-2.615-1.43-4.857-.972-6.65,1.48a4.831,4.831,0,0,0-6.26,1.84,7.779,7.779,0,0,0-5.03,1.45,4.5,4.5,0,0,0-5.41,1.85,4.675,4.675,0,0,0-6.3,2.03,4.972,4.972,0,0,0-6.53,3.22c-3.972-.832-8.368,4.094-7.03,7.68-3.567,1.379-4.373,6.379-2.3,9.23a3.713,3.713,0,0,0-2.04,2.5c-3-.851-8.422.933-7.86,4.24-3.575.985-4.563,3.963-2.41,6.56-2.034,2.326-1.2,5.622,2.3,6.49.05.08.09.13.14.2-.452,1.207,1.932,3.786,3.91,3.9-1.773,5.618,4.417,13.687,10.37,11.06a4.736,4.736,0,0,0,6.58,1.35,4.574,4.574,0,0,0,6.17.72,4.529,4.529,0,0,0,6.06.51,4.516,4.516,0,0,0,6.02.38,4.459,4.459,0,0,0,5.98.28,4.452,4.452,0,0,0,5.98.23,4.462,4.462,0,0,0,5.97.18,4.458,4.458,0,0,0,5.96.12,4.454,4.454,0,0,0,5.96.08,4.462,4.462,0,0,0,5.96.04,4.476,4.476,0,0,0,5.96,0,4.489,4.489,0,0,0,5.97-.05,4.472,4.472,0,0,0,5.96-.09,4.494,4.494,0,0,0,5.97-.14,4.5,4.5,0,0,0,5.98-.2,4.5,4.5,0,0,0,5.99-.25,4.551,4.551,0,0,0,6.02-.34,4.44,4.44,0,0,0,5.99-.47,4.544,4.544,0,0,0,6.13-.63,4.656,4.656,0,0,0,6.37-1.02,4.821,4.821,0,0,0,4.58.26,5.127,5.127,0,0,0,4.44,1.75c10.059-.4,19.882.012,29.99-.08-.391,3.461,7.488,3.512,7.28.13h9.86c-.143,3.235,7.453,3.242,7.35.03h8.88c-.1,3.25,7.183,3.266,7.18.07H228.4c-.033,3.3,7.577,3.214,7.19-.25,46.827-2.16,41.4,12.571,41.27-37.69Z" fill="#dc0c15"/><path d="M127.858,364.752l11.226,10.192a.99.99,0,0,1,.324.74l-.821,106.208a.99.99,0,0,1-1.869.448l-11.494-22.18a.989.989,0,0,1-.111-.467l1.09-94.22A.99.99,0,0,1,127.858,364.752Z" fill="#e73a3a"/></g></g></svg>