<svg xmlns="http://www.w3.org/2000/svg" viewBox="0 0 836.929 806.102"><g id="Слой_2" data-name="Слой 2"><g id="Ship"><path d="M419.3,250.475s82.218-50.891,41.109-97.076-217.973-9.445-220.358,47.212,49.158,124.305-14.826,159.454-87.244-.138-94.505-21.881-41.778-39.607-57.312,3.722" fill="none" stroke="#dc0000" stroke-miterlimit="10" stroke-width="6"/><path d="M49.169,340.32c-.14.13-.27.26-.41.39l.32,1.2.5-.09C49.439,341.33,49.309,340.83,49.169,340.32Z" fill="#ff3131"/><path d="M92.519,376.62c-3.72,2.87-7.91,4.52-10.8,4.42-12.1-.23-19.16-5.2-23.43-14.29-1.02-2.17-1.65-4.51-2.48-6.76a1.536,1.536,0,0,1,.56-1.89,38.492,38.492,0,0,1,17.11-8.99,40.28,40.28,0,0,1,15.55-.61,54.161,54.161,0,0,1,11.78,3.2,2.2,2.2,0,0,1,1.2,1.52C102.379,362.44,100.229,370.69,92.519,376.62Z" fill="#ff3131"/><path d="M49.579,341.82l-.5.09-.32-1.2c.14-.13.27-.26.41-.39C49.309,340.83,49.439,341.33,49.579,341.82Z" fill="#dc0000"/><path d="M174.249,369.31c-.95-2.07-2.04-3.46-4.23-4.15-1.96-.62-3.99-1.3-4.92-3.49a2.012,2.012,0,0,0-.94-.76c-3.83-1.92-7.63-3.92-11.53-5.69a21.9,21.9,0,0,0-6.54-2.13,26.846,26.846,0,0,1-9.74-2.7c-3.63-1.89-7.39-2.98-11.53-2.23-1.3.23-2.63.25-3.94.36a8.462,8.462,0,0,1-7.98-4.57c-.96-1.94-1.85-3.92-2.88-5.84-1.86-3.47-4.21-6.21-8.59-6.65-.64-.06-1.27-.16-1.9-.28-.46-2.37-1.39-6.9-1.74-7.25-.47-.48-11.4-4.4-18.92-4.87s-15.89,3.2-20.4,4.87c-3.87,1.42-9.52,7.82-11.06,9.63a99.539,99.539,0,0,1-2.94-17.14.5.5,0,0,0-.52-.48.511.511,0,0,0-.48.53c.38,7.12,2.73,16.94,4.88,24.66a21.544,21.544,0,0,0-1.66,1.92,19.753,19.753,0,0,0-2.14,3.48c-4.87-20.14-13.55-49.31-23.9-54.48a.5.5,0,0,0-.67.22.488.488,0,0,0,.22.67c10.12,5.06,18.87,35.17,23.67,55.18a21.581,21.581,0,0,0-1.33,8.03,10.482,10.482,0,0,1-1.02,4.82,23.645,23.645,0,0,1-9.56,9.53,27.1,27.1,0,0,0-10.62,10.35c-2.08,3.77-4.03,7.62-6.02,11.45a3.871,3.871,0,0,0-.63,1.77c.15,2.61-1.27,3.29-3.58,3.5-1.91.18-2.34,1.15-2.59,3.08a11.34,11.34,0,0,1-1.14,3.55c-.49.99-1.38,1.78-1.97,2.74-.76,1.25-1.78,2.52-1.97,3.89a7.507,7.507,0,0,1-1.17,3.34c-.54.78-1.04,1.58-1.56,2.38-1.09,1.67-.49,3.54-.54,5.32-.02.9-.72,2.21.88,2.67.07.02.07.33.09.51.12,1.11.86,1.51,1.86,1.61a3.72,3.72,0,0,0,4.28-3.07c.15-.56.4-1.1.66-1.8a2.445,2.445,0,0,1,.6.33c1.57,1.55,2.36,1.44,3.31-.63a44.005,44.005,0,0,0,1.68-4.3,3.093,3.093,0,0,1,1.61-1.8,7.112,7.112,0,0,0,2.1-2.37c.47-.7.59-1.62,1.02-2.35.7-1.18,1.23-2.6,2.78-2.95a10.629,10.629,0,0,0,5.05-2.75c2.21-2.1,3.14-4.92,4.42-7.55.34-.72.78-1.65,1.42-1.92,2.64-1.09,4-3.29,5.33-5.58a2.478,2.478,0,0,1,1.07-1.1c4.1-1.46,8.21-2.86,12.33-4.23,1.04-.34,1.73.19,1.67,1.29a6.951,6.951,0,0,1-.58,2.31c-.37.87-.96,1.65-1.35,2.51-1.01,2.24-.77,4.15.8,5.29.93.67.72,1.13.15,1.85a5.618,5.618,0,0,0-1.1,5.53,8.968,8.968,0,0,1-.41,4.75,36.1,36.1,0,0,1-2.17,4.36,25.106,25.106,0,0,0-2.76,8.58,20.679,20.679,0,0,1-1.46,5.31c-.83,2.27-2.14,4.41-2.7,6.74-.83,3.46-.44,6.79,2.13,9.7a26.936,26.936,0,0,1,2.96,4.98,62.549,62.549,0,0,0,2.98,5.62,5.622,5.622,0,0,0,9.55-.87c1.14-2.24.68-4.52.29-6.81-.34-1.99-.73-3.98-1.1-5.95,2.35-.58,3.16-1.48,3.52-3.72a4.667,4.667,0,0,1,.46-1.41,12.9,12.9,0,0,1,6.48-5.7c2.51-1.16,5.22-2.31,6.46-4.92a20.027,20.027,0,0,0,1.75-6.63c.34-3.75,2.7-5.9,6.6-5.85a37.881,37.881,0,0,0,7.17-.76c2.26-.39,4.47-1.07,6.64-1.61a32.368,32.368,0,0,0,2.18,3.61c2,2.56,4.81,3.84,7.88,4.73,2.21.64,2.95.47,4.13-1.43.04-.05.17-.04.34-.08a9.512,9.512,0,0,0,9.87,5.04c3.17-.42,4.34,1,5.73,3.31a31.188,31.188,0,0,0,8.69,9.75c2.4,1.67,4.82,2.13,7.44.43a6.32,6.32,0,0,0,3.09-6.95c-.45-2.4-1.18-4.74-1.73-7.13-1.18-5.06-3.68-9.21-8.22-11.92a3.524,3.524,0,0,1-2.02-3.76,2.967,2.967,0,0,0-1.73-3.25c-4.57-2.23-7.59-5.9-10.05-10.26-1.74-3.06-3.84-5.99-7.87-6.45-.23-.02-.59-.82-.52-1.18a8.525,8.525,0,0,1,.89-2.12c1.29-2.5,1.25-4.85-.61-7.08a24.479,24.479,0,0,1-1.58-2.2c-1.14-1.7-1.05-2.65.75-3.48a45.72,45.72,0,0,1,6.37-2.22c3.46-1.02,6.72-.93,9.31,2.09a4.924,4.924,0,0,0,1.08.83c3.1,1.97,6.38,2.76,9.79,1.01a11.326,11.326,0,0,0,2.94-2.73c.94-1.04,1.15-1.1,2.09-.04.51.58,1,1.17,1.54,1.71,1.97,1.95,3.77,2.95,7.35,1.22a4.264,4.264,0,0,1,3.19-.21,10.994,10.994,0,0,1,7.71,5.88c.44.88,1.19,1.6,2.15,1.21.5-.21.68-1.17,1.01-1.79a1.368,1.368,0,0,1,.21-.21c1.86,2.08,4.08,1.83,6.35.88a1.463,1.463,0,0,0,.66-1.12C175.019,373.26,175.169,371.32,174.249,369.31Zm-125.17-27.4-.32-1.2c.14-.13.27-.26.41-.39.14.51.27,1.01.41,1.5Zm43.44,34.71c-3.72,2.87-7.91,4.52-10.8,4.42-12.1-.23-19.16-5.2-23.43-14.29-1.02-2.17-1.65-4.51-2.48-6.76a1.536,1.536,0,0,1,.56-1.89,38.492,38.492,0,0,1,17.11-8.99,40.28,40.28,0,0,1,15.55-.61,54.161,54.161,0,0,1,11.78,3.2,2.2,2.2,0,0,1,1.2,1.52C102.379,362.44,100.229,370.69,92.519,376.62Z" fill="#dc0000"/><path d="M49.579,341.82l-.5.09-.32-1.2c.14-.13.27-.26.41-.39C49.309,340.83,49.439,341.33,49.579,341.82Z" fill="#dc0000"/><path d="M326.005,342.424l-13.483,18.185-47.956,18.7L155.036,526.629l-24.213,33.92-11.893,2.072-1.84,3.579v2.153l38.949,34.079,89.32,66.7,34.255,21.863L299,704.034l4.668,1.31,2.85-3.7,9.84-22.519,14.085-22.5L377.4,593.275l5.439-7.329,51.9-70.035,4.791-6.932,3.938-51.322.339-.542,16.6-22.593L400.17,330.937S346.11,320.6,345.4,320.6,326.005,342.424,326.005,342.424Z" fill="#ff3131"/><path d="M734.569,590.76l52.09-43.49L604.939,412.59l-20.13,16.79c-3.06-1.76-6.17-3.43-8.16-6.47l35.98-48.55q1.965,1.335,3.91,2.67l-13.42,11.22,181.72,134.68,52.09-43.49L655.209,344.75l-17.83,14.89c-2.56-4.84-9.91-7.08-13.31-1.88-4.68-4.31-8.75-1.37-11.48,3.25-15.32,1.42-28.53,13.85-31.04,29.01a5.049,5.049,0,0,0-.99,6.93c-1.4,1.45-4.31,4.09-1.33,5.52-1.7,1.78-3.41,3.56-5.11,5.35a6.2,6.2,0,0,0-1-.79c.42-1.38-.59-2.96-1.53-3.92,4.36-4.14-.76-6.23-3.78-8.75,9.08-11.58,20.45-24.97,12.58-40.13l79.2-106.87-1.28-.95-78.74,106.24a27.741,27.741,0,0,0-8.79-9.33l19.33-26.09-1.28-.95L569.5,342.37l-4.5-3.34c1.36-1.54,1.44-3.93-.45-5.09-3.35-1.88,1.21-6.9-3.2-8.07a3.085,3.085,0,0,1-2.21-3.39c.7-4.52-5.73-2.36-6.1-6.19-.54-4.53-6.15-.73-7.54-4.31a3.1,3.1,0,0,0-4.43-1.42c-3.22,2.11-5.56-4.25-8.64-.87-2.09,2.55-4.6-.93-6.93.06l-7.47-5.53c2.4-2.62,4.22-6.57,1.48-9.63-5.5-7.45-29.05-30.29-45.12-39.43-4.12-8.1-7.99-16.8-10.93-23.8l14.87-1.93,8.23,3.22c43.79,85.45,119.6,76.09,91.49-20.86l23.16.69a3.257,3.257,0,0,0,3.36-3.17v-.16c0-2.34-2.31-3.48-4.44-3.24a3.757,3.757,0,0,0,.16-.74c3.35.79,3.79-4.36.34-3.97,2.77-5.37-11.04-7.26-9.39-.35-2.62-.41-3.22,3.68-.56,3.96,1.84.07,3.68.14,5.51.2a1.782,1.782,0,0,0-.18.78l-20.06-.61c-24.19-83.73-125.96-135.57-106.19-17.46l-8.94,3.26-4.86-1.7c.04-1.87.11-3.56.24-4.97l-14-3.26c-.98,11.31.76,32.97.9,34.88.76,2.08,4.43,12.4,11.48,28.23-6.23-2.92-12.71-7.63-16.95.48L383.3,204.36a26.175,26.175,0,0,0-37.47,6.84c-1.5-3.31-6.35-4.12-8.22-.75q-2.55-2.2-5.11-4.4l20.4-26.88a2,2,0,0,0-1.78-3.15c9.99-11.65,5.4-12.43-4.85-20.06l25.49-21.28L190.039,0l-52.09,43.49,181.72,134.69,15.27-12.75c1.62,1.88,4.29,2.53,6.39,3.81-1.62,3.74-9.62,11.19-8.17,14.67-.91,5.5-23.89,35-27.39,39.89a1.931,1.931,0,0,0-3.17.71c-.85-.52-3.17-2.26-4.01-2.88l22.9-19.12L139.769,67.83l-52.09,43.5L269.4,246.01l17.51-14.62c3.11,1.82,6.33,3.48,8.36,6.59l-35.98,48.54c-1.37-.93-2.74-1.85-4.1-2.79l16.02-13.38L89.489,135.67,37.4,179.16l181.73,134.68,15.29-12.78c2.49,4.95,9.97,7.35,13.42,2.06,4.68,4.32,8.76,1.37,11.48-3.25,15.32-1.42,28.53-13.84,31.04-29.01a5.027,5.027,0,0,0,.99-6.92c1.4-1.45,4.31-4.1,1.33-5.52q2.55-2.685,5.11-5.35a6.185,6.185,0,0,0,4.75,1.71c-5.79,7.05-4.96,6.93,2.03,12.09-35.91,41.63-13.41,49.64,21.44,75.55,1.43-8.84,138.99,93.12,130.94,97.05l6.43,4.77-1.41,1.89,2.59,1.92-1.24,1.68,10.66,7.9,1.24-1.68,9.29,6.88,1.4-1.89c14.01,10.69,32.48,3.84,40.5-10.72a6.7,6.7,0,0,0,.65.82c-17.62,18.84-19.44,35.9-7,58.27l-17.49,14.6L684.3,658.6l52.08-43.49L554.659,480.43l-22.89,19.11-7.69-5.7,42.06-56.75a1.941,1.941,0,0,0,3.17-.72c1.53,1.43,4.97,2.96,5.15-.36l1.28.95-22.89,19.12ZM618.909,365.89c2.13,1.28,4.25,2.56,6.38,3.84l-5.57,4.65c-1.56-1.08-3.14-2.15-4.72-3.22Zm-9.74-.27-14.51,19.59c-2.91-3.23-5.56,3.15-7.71,4.7a2.06,2.06,0,0,0-1.12-.77A31.557,31.557,0,0,1,609.169,365.62ZM253,295c-2.18-1.32-4.38-2.64-6.56-3.96l5.56-4.65q2.46,1.665,4.91,3.34Zm9.74.26,14.51-19.58a2.015,2.015,0,0,0,3.31.16l4.41-4.86a1.975,1.975,0,0,0,1.12.76A31.57,31.57,0,0,1,262.739,295.26Zm35.65-61.49a81.152,81.152,0,0,1-7.63-5.6l1.53-1.28,7.23,5.35Zm219.65,248.04a42,42,0,0,1,8.24-20.77,46.775,46.775,0,0,1,11.68-10.72l.02.01C531.369,460.86,524.589,471.23,518.039,481.81Zm3.24,2.4c6.47-10.69,13.4-21.07,20.01-31.68.19.12.38.25.57.37C535.339,463.18,528.869,474.59,521.279,484.21Z" fill="#dc0000"/><path d="M383.58,401.6c36.159,26.8,63.806,50.763,61.759,53.525.011-.011,9.728-13.134,9.742-13.141,2.049-2.764-25.6-26.731-61.763-53.53s-67.134-46.283-69.183-43.519c0,.014-9.729,13.131-9.738,13.144C316.444,355.321,347.415,374.8,383.58,401.6Z" fill="#dc0000"/><path d="M355.494,439.5c46.322,34.331,82.743,64.5,84.036,69.48l3.938-51.322c8.044-3.936-129.531-105.9-130.946-97.048l-47.956,18.7C269.707,379.1,309.166,405.164,355.494,439.5Z" fill="#dc0000"/><path d="M293.4,523.27c-48.43-35.9-89.36-62.76-91.41-59.99l-46.95,63.35c-2.16-2.14-5.76-2.8-7.74-.07l-10.35,13.97a4.545,4.545,0,0,0,.66,6.12l-18.68,15.97c-2.05,2.76,38.28,36.13,90.08,74.52s95.46,67.27,97.51,64.51l9.84-22.52a4.542,4.542,0,0,0,6.05-1.16l10.34-13.96c2.05-2.68.37-5.94-2.31-7.38l46.96-63.36C379.449,590.51,341.839,559.17,293.4,523.27Zm-137.83,25.46-5.89-4.37,4.75-6.41,5.89,4.37Zm15.95,11.82-5.89-4.37,4.75-6.41,5.89,4.37Zm15.95,11.82-5.9-4.37,4.75-6.41,5.9,4.37Zm15.94,11.81-5.89-4.36,4.75-6.41,5.89,4.37ZM219.359,596l-5.89-4.36,4.75-6.41,5.89,4.37Zm15.95,11.82-5.9-4.37,4.75-6.41,5.89,4.37Zm15.94,11.82-5.89-4.37,4.75-6.41,5.89,4.37Zm15.95,11.82-5.9-4.37,4.75-6.41,5.9,4.37Zm15.95,11.82-5.9-4.37L282,632.5l5.89,4.37Zm15.94,11.82-5.9-4.38,4.75-6.4,5.9,4.37Zm15.95,11.81-5.9-4.37,4.75-6.4,5.9,4.36Z" fill="#dc0000"/><path d="M303.625,704.449C293.8,706.037,118.43,576.064,117.09,566.2,102.856,566.974,307.028,718.292,303.625,704.449Z" fill="#dd2414"/><path d="M259.33,385.909l0,0-52.59,70.959c.119-9.782,184.743,127.052,175.412,130.005l52.59-70.96h0C444.057,512.946,259.439,376.123,259.33,385.909Z" fill="#dc0000"/><path d="M380.767,218.9c-19.51-14.32-41.41,15.25-22.04,29.74C378.237,262.96,400.157,233.4,380.767,218.9Zm-11.15,30.72a15.426,15.426,0,0,1-9.21-3.27c-8.04-6.01-6.56-13.71-5.55-16.74,2.25-6.77,8.57-11.69,15.03-11.69a15.42,15.42,0,0,1,9.2,3.27c8.04,6.01,6.57,13.71,5.56,16.74C382.4,244.7,376.077,249.62,369.617,249.62Z" fill="#ff3131"/><path d="M381.957,237.03c-1.88,5.65-7.07,9.76-12.34,9.76a12.719,12.719,0,0,1-7.54-2.72c-6.3-4.72-5.55-10.52-4.53-13.56,1.88-5.65,7.07-9.76,12.34-9.76a12.714,12.714,0,0,1,7.53,2.72C383.727,228.19,382.977,233.99,381.957,237.03Z" fill="#ff3131"/><polygon points="51.07 178.982 66.685 165.726 81.862 177.075 66.247 190.331 51.07 178.982" fill="#ff3131"/><polygon points="72.128 160.516 87.743 147.261 102.92 158.609 87.305 171.865 72.128 160.516" fill="#ff3131"/><polygon points="72.487 194.681 88.102 181.425 103.279 192.774 87.665 206.03 72.487 194.681" fill="#ff3131"/><polygon points="93.545 176.215 109.16 162.959 124.337 174.309 108.722 187.564 93.545 176.215" fill="#ff3131"/><polygon points="93.905 210.379 109.52 197.124 124.696 208.473 109.082 221.728 93.905 210.379" fill="#ff3131"/><polygon points="114.963 191.914 130.578 178.658 145.754 190.007 130.14 203.263 114.963 191.914" fill="#ff3131"/><polygon points="115.322 226.079 130.936 212.823 146.114 224.172 130.499 237.427 115.322 226.079" fill="#ff3131"/><polygon points="136.38 207.613 151.995 194.357 167.172 205.706 151.557 218.961 136.38 207.613" fill="#ff3131"/><polygon points="136.741 241.893 152.355 228.637 167.532 239.986 151.917 253.241 136.741 241.893" fill="#ff3131"/><polygon points="157.798 223.427 173.413 210.171 188.59 221.52 172.976 234.775 157.798 223.427" fill="#ff3131"/><polygon points="158.158 257.591 173.772 244.336 188.95 255.685 173.335 268.94 158.158 257.591" fill="#ff3131"/><polygon points="179.216 239.125 194.831 225.87 210.007 237.219 194.393 250.475 179.216 239.125" fill="#ff3131"/><polygon points="179.575 273.29 195.19 260.035 210.367 271.383 194.752 284.639 179.575 273.29" fill="#ff3131"/><polygon points="200.633 254.824 216.248 241.569 231.425 252.918 215.81 266.173 200.633 254.824" fill="#ff3131"/><polygon points="200.993 288.989 216.607 275.733 231.784 287.082 216.169 300.338 200.993 288.989" fill="#ff3131"/><polygon points="222.05 270.523 237.665 257.268 252.842 268.617 237.228 281.872 222.05 270.523" fill="#ff3131"/><polygon points="105.851 113.419 121.465 100.164 136.642 111.513 121.027 124.768 105.851 113.419" fill="#ff3131"/><polygon points="126.908 94.954 142.523 81.698 157.7 93.047 142.085 106.303 126.908 94.954" fill="#ff3131"/><polygon points="127.268 129.118 142.882 115.863 158.06 127.211 142.445 140.467 127.268 129.118" fill="#ff3131"/><polygon points="148.326 110.652 163.94 97.397 179.117 108.746 163.502 122.001 148.326 110.652" fill="#ff3131"/><polygon points="148.685 144.817 164.3 131.561 179.477 142.911 163.862 156.166 148.685 144.817" fill="#ff3131"/><polygon points="169.743 126.352 185.358 113.096 200.535 124.445 184.92 137.7 169.743 126.352" fill="#ff3131"/><polygon points="170.103 160.516 185.717 147.26 200.894 158.609 185.279 171.865 170.103 160.516" fill="#ff3131"/><polygon points="191.16 142.05 206.775 128.795 221.952 140.143 206.337 153.399 191.16 142.05" fill="#ff3131"/><polygon points="191.521 176.33 207.136 163.074 222.313 174.423 206.698 187.679 191.521 176.33" fill="#ff3131"/><polygon points="212.579 157.864 228.193 144.609 243.371 155.957 227.756 169.213 212.579 157.864" fill="#ff3131"/><polygon points="212.938 192.029 228.553 178.773 243.73 190.122 228.115 203.377 212.938 192.029" fill="#ff3131"/><polygon points="233.996 173.563 249.611 160.308 264.788 171.656 249.173 184.912 233.996 173.563" fill="#ff3131"/><polygon points="234.356 207.727 249.97 194.472 265.147 205.821 249.532 219.077 234.356 207.727" fill="#ff3131"/><polygon points="255.414 189.262 271.028 176.006 286.205 187.355 270.59 200.611 255.414 189.262" fill="#ff3131"/><polygon points="255.773 223.426 271.387 210.171 286.564 221.52 270.95 234.775 255.773 223.426" fill="#ff3131"/><polygon points="276.831 204.961 292.445 191.705 307.623 203.054 292.008 216.31 276.831 204.961" fill="#ff3131"/><polygon points="151.956 41.718 167.571 28.462 182.748 39.811 167.133 53.067 151.956 41.718" fill="#ff3131"/><polygon points="173.014 23.252 188.629 9.997 203.806 21.346 188.191 34.602 173.014 23.252" fill="#ff3131"/><polygon points="173.373 57.417 188.988 44.162 204.165 55.51 188.551 68.766 173.373 57.417" fill="#ff3131"/><polygon points="194.431 38.951 210.046 25.696 225.223 37.045 209.608 50.3 194.431 38.951" fill="#ff3131"/><polygon points="194.791 73.116 210.405 59.86 225.582 71.209 209.968 84.465 194.791 73.116" fill="#ff3131"/><polygon points="215.849 54.65 231.464 41.394 246.64 52.744 231.026 65.999 215.849 54.65" fill="#ff3131"/><polygon points="216.208 88.815 231.822 75.559 247 86.908 231.385 100.164 216.208 88.815" fill="#ff3131"/><polygon points="237.266 70.349 252.881 57.094 268.058 68.442 252.443 81.698 237.266 70.349" fill="#ff3131"/><polygon points="237.627 104.629 253.241 91.373 268.418 102.722 252.803 115.977 237.627 104.629" fill="#ff3131"/><polygon points="258.684 86.163 274.299 72.908 289.476 84.256 273.862 97.512 258.684 86.163" fill="#ff3131"/><polygon points="259.044 120.328 274.658 107.072 289.836 118.421 274.221 131.676 259.044 120.328" fill="#ff3131"/><polygon points="280.102 101.862 295.717 88.606 310.893 99.955 295.279 113.211 280.102 101.862" fill="#ff3131"/><polygon points="280.461 136.026 296.076 122.771 311.253 134.12 295.638 147.375 280.461 136.026" fill="#ff3131"/><polygon points="301.519 117.56 317.134 104.305 332.311 115.654 316.696 128.91 301.519 117.56" fill="#ff3131"/><polygon points="301.879 151.725 317.493 138.47 332.67 149.819 317.055 163.074 301.879 151.725" fill="#ff3131"/><polygon points="322.936 133.26 338.551 120.004 353.728 131.353 338.113 144.608 322.936 133.26" fill="#ff3131"/><polygon points="519.042 524.959 534.656 511.703 549.833 523.053 534.218 536.308 519.042 524.959" fill="#ff3131"/><polygon points="540.099 506.494 555.714 493.238 570.891 504.587 555.276 517.843 540.099 506.494" fill="#ff3131"/><polygon points="540.459 540.658 556.073 527.403 571.251 538.751 555.636 552.007 540.459 540.658" fill="#ff3131"/><polygon points="561.517 522.192 577.131 508.937 592.308 520.286 576.693 533.541 561.517 522.192" fill="#ff3131"/><polygon points="561.876 556.357 577.491 543.101 592.668 554.451 577.053 567.706 561.876 556.357" fill="#ff3131"/><polygon points="582.934 537.891 598.549 524.636 613.726 535.985 598.111 549.24 582.934 537.891" fill="#ff3131"/><polygon points="583.294 572.056 598.908 558.8 614.085 570.149 598.47 583.405 583.294 572.056" fill="#ff3131"/><polygon points="604.351 553.59 619.966 540.335 635.143 551.683 619.528 564.939 604.351 553.59" fill="#ff3131"/><polygon points="604.712 587.87 620.327 574.614 635.504 585.963 619.889 599.219 604.712 587.87" fill="#ff3131"/><polygon points="625.77 569.404 641.384 556.149 656.562 567.497 640.947 580.753 625.77 569.404" fill="#ff3131"/><polygon points="626.129 603.569 641.744 590.313 656.921 601.662 641.306 614.917 626.129 603.569" fill="#ff3131"/><polygon points="647.187 585.103 662.802 571.848 677.979 583.196 662.364 596.452 647.187 585.103" fill="#ff3131"/><polygon points="647.546 619.267 663.161 606.012 678.338 617.361 662.723 630.617 647.546 619.267" fill="#ff3131"/><polygon points="668.605 600.802 684.219 587.546 699.396 598.895 683.781 612.151 668.605 600.802" fill="#ff3131"/><polygon points="668.964 634.966 684.578 621.711 699.755 633.06 684.141 646.315 668.964 634.966" fill="#ff3131"/><polygon points="690.022 616.501 705.636 603.245 720.814 614.594 705.199 627.849 690.022 616.501" fill="#ff3131"/><polygon points="573.822 459.397 589.437 446.141 604.613 457.49 588.999 470.745 573.822 459.397" fill="#ff3131"/><polygon points="594.88 440.931 610.494 427.676 625.672 439.024 610.057 452.28 594.88 440.931" fill="#ff3131"/><polygon points="595.239 475.096 610.854 461.84 626.031 473.189 610.416 486.445 595.239 475.096" fill="#ff3131"/><polygon points="616.297 456.63 631.912 443.374 647.089 454.723 631.474 467.979 616.297 456.63" fill="#ff3131"/><polygon points="616.656 490.794 632.271 477.539 647.448 488.888 631.833 502.143 616.656 490.794" fill="#ff3131"/><polygon points="637.715 472.329 653.329 459.073 668.506 470.422 652.891 483.678 637.715 472.329" fill="#ff3131"/><polygon points="638.074 506.494 653.688 493.238 668.865 504.587 653.251 517.842 638.074 506.494" fill="#ff3131"/><polygon points="659.132 488.028 674.746 474.772 689.924 486.121 674.309 499.376 659.132 488.028" fill="#ff3131"/><polygon points="659.492 522.307 675.107 509.052 690.284 520.401 674.669 533.656 659.492 522.307" fill="#ff3131"/><polygon points="680.55 503.842 696.165 490.586 711.342 501.935 695.727 515.19 680.55 503.842" fill="#ff3131"/><polygon points="680.909 538.006 696.524 524.751 711.701 536.099 696.087 549.355 680.909 538.006" fill="#ff3131"/><polygon points="701.967 519.54 717.582 506.285 732.759 517.634 717.144 530.89 701.967 519.54" fill="#ff3131"/><polygon points="702.327 553.705 717.942 540.45 733.118 551.798 717.504 565.054 702.327 553.705" fill="#ff3131"/><polygon points="723.385 535.239 739 521.984 754.176 533.333 738.562 546.588 723.385 535.239" fill="#ff3131"/><polygon points="723.744 569.404 739.359 556.148 754.536 567.497 738.921 580.753 723.744 569.404" fill="#ff3131"/><polygon points="744.802 550.938 760.417 537.682 775.594 549.032 759.979 562.287 744.802 550.938" fill="#ff3131"/><polygon points="619.928 387.696 635.542 374.44 650.719 385.789 635.104 399.044 619.928 387.696" fill="#ff3131"/><polygon points="640.985 369.23 656.6 355.974 671.777 367.323 656.162 380.579 640.985 369.23" fill="#ff3131"/><polygon points="641.345 403.394 656.959 390.139 672.137 401.488 656.522 414.744 641.345 403.394" fill="#ff3131"/><polygon points="662.403 384.929 678.017 371.673 693.194 383.022 677.579 396.278 662.403 384.929" fill="#ff3131"/><polygon points="662.762 419.093 678.377 405.838 693.554 417.187 677.939 430.442 662.762 419.093" fill="#ff3131"/><polygon points="683.82 400.628 699.435 387.372 714.612 398.721 698.997 411.976 683.82 400.628" fill="#ff3131"/><polygon points="684.18 434.792 699.794 421.536 714.971 432.886 699.356 446.141 684.18 434.792" fill="#ff3131"/><polygon points="705.237 416.327 720.852 403.071 736.029 414.42 720.414 427.675 705.237 416.327" fill="#ff3131"/><polygon points="705.598 450.606 721.213 437.35 736.39 448.7 720.775 461.955 705.598 450.606" fill="#ff3131"/><polygon points="726.656 432.14 742.27 418.885 757.448 430.234 741.833 443.489 726.656 432.14" fill="#ff3131"/><polygon points="727.015 466.305 742.63 453.05 757.807 464.398 742.192 477.654 727.015 466.305" fill="#ff3131"/><polygon points="748.073 447.839 763.688 434.584 778.865 445.932 763.25 459.188 748.073 447.839" fill="#ff3131"/><polygon points="748.432 482.004 764.047 468.748 779.224 480.097 763.609 493.353 748.432 482.004" fill="#ff3131"/><polygon points="769.491 463.538 785.105 450.283 800.282 461.632 784.667 474.887 769.491 463.538" fill="#ff3131"/><polygon points="769.85 497.702 785.464 484.447 800.641 495.796 785.027 509.052 769.85 497.702" fill="#ff3131"/><polygon points="790.908 479.237 806.522 465.981 821.7 477.33 806.085 490.586 790.908 479.237" fill="#ff3131"/><path d="M495.322,118.634c-16.974.818-35.656,22.364-2.984,95.56s70.194,75.623,70.194,75.623-37.226,14.091-75.973-57.167C450.728,163.074,467.147,114.491,495.322,118.634Z" fill="#ff3131"/><path d="M435.078,306.58c-12.014,21.644-35.764,36.968-37.641,41.347-4.277,9.98,22.812,26.851,11.881,19.01s-24.475-12.832-18.3-29.466,46.608-92.831,46.608-92.831c5.274-9.995,16.95-.48,16.95-.48l24.039,13.6s-14.171-1.321-16.726,3.788C461.1,263.137,445.252,288.252,435.078,306.58Z" fill="#ff3131"/><rect x="536.385" y="203.791" width="67.075" height="2.407" rx="1.203" transform="translate(7.507 -19.778) rotate(2.001)" fill="#ff3131"/><path d="M196.937,656.986C155.473,626.1,114.5,610.938,105.411,623.13s17.159,47.121,58.623,78.016S246.471,747.2,255.559,735,238.4,687.881,196.937,656.986Zm-22.746,30.525c-27.47-20.476-43.728-39.58-50.248-50.562,13.959,3.349,37.486,14.79,62.836,33.682,27.47,20.466,43.718,39.58,50.248,50.552C223.068,717.834,199.541,706.393,174.191,687.511Z" fill="#ff3131"/><path d="M151.5,713.782c-32.862-24.479-65.337-36.5-72.54-26.833s13.6,37.346,46.462,61.833,65.338,36.5,72.541,26.833S184.365,738.269,151.5,713.782Zm-18.027,24.193C111.7,721.746,98.818,706.605,93.65,697.9c11.063,2.655,29.71,11.722,49.8,26.7,21.771,16.22,34.649,31.37,39.825,40.066C172.213,762.008,153.566,752.941,133.475,737.975Z" fill="#ff3131"/><path d="M110.7,765.973C90.467,750.9,70.473,743.5,66.038,749.452s8.373,22.994,28.606,38.07S134.871,810,139.306,804.043,130.933,781.049,110.7,765.973Zm-11.1,14.9c-13.4-9.992-21.338-19.315-24.52-24.673,6.812,1.634,18.292,7.217,30.662,16.436,13.405,9.986,21.334,19.314,24.52,24.668C123.451,795.665,111.971,790.083,99.6,780.869Z" fill="#ff3131"/></g></g></svg>