<svg xmlns="http://www.w3.org/2000/svg" viewBox="0 0 648.847 509.393"><g id="Слой_2" data-name="Слой 2"><g id="Слой_1-2" data-name="Слой 1"><path d="M322.772,440.935q2.813.828,5.546,1.894c1.385.537,1.985-1.693.613-2.225a73.986,73.986,0,0,0-45.4-2.322c-15.611,3.743-28.1,14.137-40.109,24.236-19.179,17.242-47.582,23.636-71.716,13.773a4.778,4.778,0,0,0,.074-3.863c-4.145-15.714-.516-26.627,17.316-27.228,2.9-.185,5.556-1.632,8.379-2.218a24.8,24.8,0,0,1,14.4.828c6.725-7.3,12.41-3.048,14.429-7.017a.92.92,0,0,0-.207-1.381c-4.281-3.961-9.5-6.311-14.67-8.849-4.575-1.934-5.659-7.117-7.451-11.261,9.563.562,19.353.033,28.554,3.127,8.693,2.876,17.584,10.892,16.372,20.805a1.162,1.162,0,0,0,1.154,1.154,1.182,1.182,0,0,0,1.154-1.154c.808-6.553-2.652-12.7-7.446-16.93-11.07-9.764-26.636-8.563-40.418-9.322-.4-5.386,4.225-7.431,8.959-7.216,4.555.254,8.908-1.458,13.4-1.665,2.455.261,5-2.962,3.924-4.887a25.131,25.131,0,0,0-2.262-1.471c-2.615-1.634,3.339-2.815,4.319-3.53,3.035-1.405,4.218-3.373,4.008-6.685a1.156,1.156,0,0,0-.66-.823c-2.177-.639-5.639,2.105-7.908,2.833.835-3.911,3.876-10.951.4-14.218-3.355,2.619-4.91,6.038-6.24,9.917-1.2-1.924-1.424-4.442-3.21-5.994-2.007-1.7-2.848.624-3.016,2.374-.6,2.741-1.033,5.536-1.862,8.207-1.976,7.025-4.811,9.476-11.125,12.815-.23-5.234,3.045-11.625,6.757-15.282,2.113-1.993,3.006-4.662,3.979-7.322-1.59-.971-2.79.687-4.375.545,4.537-4.96,11.616-12.945,9.792-20.169-3.322.308-5.932,2.324-8.962,3.979,2.275-6.531,6.3-13.83,2.305-20.488-3.537,4.964-8.743,8.983-9.326,15.324-.006.278-.41.545-.553.723l-3.562-4.263a18.944,18.944,0,0,0-3.158,12.533c-1.67-.821-2.851-1.8-4.46-2.585-1.221-.561-2.55-.884-3.791-1.409a1.584,1.584,0,0,0-2.19.639c3.4,5.358,7.393,10.408,10.956,15.59,2.908,6.246,1.809,13.036.916,19.584a4.8,4.8,0,0,1-1.892,3.484c-1.167-1.3-1.516-3.152-1.935-4.782-.086-.538.689-1.222,1.087-1.829,1-1.526,1.646-3.076.329-4.838l-3.649.4c.454-1.671,2.044-4.394,1.822-5.765-1.471-1.957-3.424-.2-5.051.845-.707-2.08.108-4.666-1.888-5.96l-2.465,3.3-.376-.159-.179-2.959-.354-.077c-.24.634-.479,1.269-.762,2.018-1.454-1.7-2.112-3.839-4.208-4.8-.3,3.022-.624,5.986.516,8.791,3.1,5.911,5.965,12.384,12.108,15.766,3.559,1.768,5.3,5.553,7.2,8.875a50.669,50.669,0,0,1-7.789-1.687c-.427-1.11-.93-2.2-1.371-3.3l-.492-.032-1.41,2.164c-.976-.4-1.933-.853-2.863-1.352q-1.787-3.63-3.594-7.251c-.146-.29-.659-.711-.787-.646-.983.5-1.276-.271-1.462-.85a75.276,75.276,0,0,1-2.136-9.871c-1.282-4.622-1.977-9.4-3.071-14.024,2.059-7.136,5.888-13.6,9.771-19.874l1.58-.032a1.154,1.154,0,1,0-.122-2.305c1.14-1.661,2.013-3.555,3.282-5.1a5.242,5.242,0,0,0,1.829-3.388c.877-1.516,1.543-3.286,2.418-4.756,4.379-9.607.336-24.522-12.107-24.209-13.305,1.312-20.769,17.184-30.666,24.9a21.249,21.249,0,0,0-3.24-4.626,1.524,1.524,0,0,1-.167-1.954c.281-.523.617-1.476.379-1.738-2.205-2.16,4.765-4.427,1.6-11.224-1.186-2.6-2.8-5-4.218-7.488-.968-2.6-.923-3.889-3.765-5.272-1.958-.975-4.011-1.872-5.456-3.631-1.907-2.4-3.76-2.421-6.458-2.913-1.24-1.118-2.4-.437-3.573.1-1.8.829-4.122,1.952-6.029,1.742-1.934-.423-2.687.516-3.469,1.829-.926,1.554-1.973,3.049-2.743,4.676-.443.936-.255,2.167-.688,3.11-1.217,2.4,2.48,2.955,2.976,7.9,1.945,11.108,14.6,14.562,24.385,14.413.028,1.1,1.067,2.46,1.928,2.2,1.536-.417,1.826,1.1,2.6,1.93l3.023,3.54a146.809,146.809,0,0,1-12.758,9.931c-2.895-6.534-6.3-7.239-5.576-15.589.049-.682-.073-1.195-.728-1.478-2.747-1.608-6.123-1.691-8.492-3.918-1.153-.989-2.868-.274-4.207-.056-2.006.077-3.153-4.556-8.068-3.242-3.687,1.08-7.085,2.586-9.623,5.692-.515.63-1.758.742-2.7.9-.241.039-.615-.666-.91-1.043a27.667,27.667,0,0,0-5.61-5.942c9.685-14.217,26.43-21.8,35.766-36.346,6.963-9.882,7.51-24.691-1.709-33.354,1.42-1.116,2.6-2.515,4.385-3.085a8.6,8.6,0,0,0,2.93-2.636c1.9-2.5-1.658-4.922-4.227-1.667,5.716-7.6-.68-15.685-9.311-15.642-2.016-.346-.757,2.355-2.352,1.839a2.189,2.189,0,0,0-2.67.9c-2.1,2.824-4.108.556-6.692,1.146a12.382,12.382,0,0,0,1.416,3.134c-1.087.109-2.276-.252-2.078,1.212.173,1.759.356,3.518.488,5.28.137,4.986,2.672,12.673,9.108,10.018-.757,1.748.466,4.049,2.563,3.18,1.789-.412,1.986-3.1,4.1-2.554l.059-.023c7.193,6.058,8.635,16.889,5.052,25.314-7.739,18.144-27.976,26.01-38.7,41.908a151.422,151.422,0,0,1-33.285-25.761c-1.634-1.391,1.033-2.445-.225-3.774-2.515-1.962,9.526-8.7,1.038-17.589-7.349-7.649-6.991-12.824-18.932-7.329-8.458,4.5-3.358,15.285.007,21.61,2.129,4.007,7.158,5.72,11.516,4.8.634,2.922,2.909,2.122,4.231,3.86,8.7,11.93,22.272,18.389,34.358,26.22-4.08,6.832-6,15.458-3.674,23.222a14.637,14.637,0,0,0,.744,8.044c1.7,3.753,5.468,10.286,9.473,11.568.1.033.162.2.429.547l-9.768,3.248c-.391-3.94-1.557-7.464-4.85-9.857-3.842-3.043-9.786-.67-13.657,1.314-5.9,4.634,2.846,9.1,5.3,12.842-2.407,1.053-3.948-1.245-5.833-2.2-4.326-2.232-7.847-5.534-11.614-8.522-2.795-2.584-6.636-3.516-9.035-6.526a28.008,28.008,0,0,0,10.984-14.863c1.347-3.434,2.835-6.747,5.83-9.135a5.2,5.2,0,0,0,1.476-1.8c1.116-2.442,2.154-4.922,3.147-7.417.951-2.129-2.028-2.739-3.377-1.874A3.328,3.328,0,0,1,55,328.4c-.741.037-.917-.284-.705-.979a8.042,8.042,0,0,1,3.047-4.54,3.083,3.083,0,0,0-.521-5.174c-1.249-.695-2.724-1.436-2.645-3.128.082-3.193-3.573-3.687-5.886-4.606a.95.95,0,0,0-.741.247q-3.263,2.832-6.49,5.7c-3.823,3.283-.716,5.533-2.341,8.8-2.643,3.72-2.047,8.053-2.124,12.292.109,1.346-2.673,3.367-2.549,1.138a11.361,11.361,0,0,0-.388-3.415,6.214,6.214,0,0,1-.55-3.806c.156-.879.259-1.771.475-2.634,1.03-2.347-2.249-7.716-4.7-5.789a6.48,6.48,0,0,1-5.243,1.528c-5.4-.836-6.227,5.305-10.129,7.422-5.456,2.485-10.188,5.853-9.4,12.588a4.265,4.265,0,0,1-1.972,3.675c-3.165,2.091-2.136,5.009-1.136,8.018.464,3.317,3.409,3.651,6.263,4.64-.432,1.963.114,5.012-1.463,6.735-1.639,1.418-3.656,6.447-.1,6.623,2.545-.324,4.931-1.543,7.411-2.191,3.012-.91,5.948-1.909,8.105-4.413a5.459,5.459,0,0,1,4.118-1.682,6.248,6.248,0,0,0,2.678-.818c5.946-3.3,11.516,2.83,16.009,6.061,4.385,3.772,8.786,7.418,14.454,9.159,1.2.5,7.358,2.277,4.434,3.908a4.978,4.978,0,0,0-1.069.964c-1.093,2.172-3.165,3.217-4.994,4.666-1.373.87-.465,2.582-1.359,3.771-.76,1.081-2.153,1.759-1.954,3.322a11.714,11.714,0,0,1-.42,3.118c-1.081,4.111,3.239,7.578,7.122,6.533,3.428-.932,6.781-2.083,10.336-1.028,4.185.81,8.516.261,12.747.16a10.974,10.974,0,0,0,3.373-.714c3.325-1.364,6.537-3.009,9.858-4.393l.177.211c-2.643,3.26-4.87,6.8-5.693,10.964a8.765,8.765,0,0,0-.2,4.064c1.091,3.2,2.511,8.509,6.48,9,3.425-.107,3.322,4.677,6.868,3.546,3.266-1.094,3.357,1.306,5.968,2.039,6.045,2.534,6.619.921,11.979-1.708a5.235,5.235,0,0,1,4.524-.417c2.358.973,5.285,1.951,7.731.9,4.039-3.056,7.693-6.419,10.161-10.936,7.974,5.044,4.255,10.325,9.454,15.18a2.594,2.594,0,0,1,.931,2.585c.4,1.669,3.8,3.4,5.546,3.645-.606,1.267.286,1.753,1.156,2.027a18.966,18.966,0,0,0,4.618,1.109c3.726.023,7.572.394,11.233-.392a3.884,3.884,0,0,1,1.077.179c-2.427,2.7-6.5,3.668-9.926,4.529-14.872,3.59-15.016-11.029-25.221-10.6l.657,1.55c-3.036-.1-5.474-1.189-8.308-1.953a4.437,4.437,0,0,0-2.924-.164q-.583-1.708-1.076-3.446a1.155,1.155,0,0,0-2.225.613q.395,1.391.849,2.761a3.754,3.754,0,0,0-2.621.338c-.1.061-.278-.011-.42-.02-6.256-.579-12.5-.052-18.719-1.183a5.475,5.475,0,0,0,.672,1.227c2.93,2.959,3.51,7.36,6.424,10.314,1.124,1.34,3.574,2.058,4.31,3.638.1,1.5,1.16,1.988,2.229,2.2,2.607.528,5.256.846,7.887,1.249l-.407,1.288a19.973,19.973,0,0,0,10.776.45q.674.913,1.379,1.8c-4.784-.1-9.528,1.315-14.283.659-4.275-.723-8.5-1.7-12.882-1.566-.719-.2-1.377-.3-1.215.931-1.471-.031-3.71-1.594-4.291.38-3.751-2.7-8.532-.869-12.451.557-1.433.643.45,1.305,1.014,1.864-6.425,1.694-11.9,7.278-18.858,5.921a3.433,3.433,0,0,0-.993.16c2.209,2.267,4.243,4.305,7.083,5.165a4.2,4.2,0,0,1,2.3,1.442c4.468,3.827,13.5,1.321,18.7.082l-.843,1.631a16.206,16.206,0,0,1,2.7.591c4.2,1.664,8.555.041,12.4-1.721,3.719-1.7,7.212-3.958,10.808-5.851,2.308-.71,4.7-1.79,7.128-1.844-1.139,1.567-3.289,1.983-4.514,3.446a8.43,8.43,0,0,1-3.312,2.157c-3.718,1.144-8.581,3.977-5.666,8.141-2.516,2.093-5.028,4.174-7.466,6.353a4.633,4.633,0,0,0-.722,1.3c.652.158,1.32-.035,1.877.4-.291,1.123-2.1,3.362-1.146,4.332a1.98,1.98,0,0,1,.928,2.21c-.245,4.025-2.63,6.714-5.366,9.426l.1.359c7.671.989,14.781-3.6,20.079-8.882l1.533,1.494,2.771-4.517,1.22,1.173c1.875-2.155,2.969-4.854,4.235-7.38,1.09-2.524,2.3-5.043,2.11-7.957a13.245,13.245,0,0,1,.454-3.246c.5-2.024.585-4.179,1.475-6.077l1.124,1a23.693,23.693,0,0,0,1.4-4.078,68.516,68.516,0,0,0,5.494,4.6c-1.664,1.594-4.052,3.176-3.985,5.691l1.387-.01a37.036,37.036,0,0,1,.031,4.493,11.326,11.326,0,0,0,2.813,8.593c2.041.019,1.225,1.93,1.792,3.17.819,2.812,1.561,5.624.855,8.6-.082.346.154.769.285,1.338a27.2,27.2,0,0,0,9.506-20.308c.006-.8.566-1.133,1.081-.828.832.494,1.276.013,1.771-.26-.01-.577-.02-1.137-.029-1.69C244.717,504.606,250.4,421.35,322.772,440.935Zm-117.318-8.359c.689.837,1.331,1.711,2.129,2.742-1.257,0-3.014.822-3.884.043-3.618-2.848-7.534-5.307-11.2-8.079a22.708,22.708,0,0,0-6.807-3.645c-5.073-1.946-9.489-5.173-14.67-6.927-7-2.3-13.366-5.812-20.455-7.963a3.114,3.114,0,0,1,.27-.888c2.362-3.263-2.17-8.447,3.478-10.072a4.41,4.41,0,0,0,2.662-6.222c-3.08-4.413,1.963-10.391-3.3-10.913-1.612-.107-1.742-.424-.933-1.839.657-1.148,1.2-2.359,1.879-3.7a5.479,5.479,0,0,1,1.165.92c1.962,2.54,4.745,4.158,7.018,6.334,1.832,1.761,3.445,3.756,5.115,5.679A28.582,28.582,0,0,0,171.192,400a2.6,2.6,0,0,0-2.338-1.074l-.141.311c-1.119-2.208-2.257-4.407-3.345-6.631a2.454,2.454,0,0,0-1.72-1.419c-.752,5.838,1.065,12.59,3.868,17.67,3.488,5.736,10.174,7.645,15.494,11.064C189.925,425.262,199.522,425.976,205.454,432.576Zm-50.271-68.014c.85-.087.914-1.064.921-1.8l2.352-1.988c3.927,6.292,7.242,12.669,9.049,19.762l-.379.291C162.145,376.567,155.205,371.786,155.183,364.562Zm5.848-10.884c.439-.661,1.218-.347,1.805-.043C162.234,353.64,161.631,353.652,161.031,353.678Zm9.6,37.765a8.511,8.511,0,0,1,.863,3.37A25.607,25.607,0,0,1,170.634,391.443Zm27.572,25.073c.09,1.41,1.106,2.825.934,4.219a13.228,13.228,0,0,1-9.338-7.489,61.294,61.294,0,0,0,7.962,1.494A10.484,10.484,0,0,1,198.206,416.516Zm-21.523-57.429a79.213,79.213,0,0,0-6.213,12.75c-2.2-5.121-4.909-10.357-8.821-14.415a1.04,1.04,0,0,0-.031-.145c1.193-.468,3.511.141,3.915-1.344,4.4.037,8.786-.18,13.2-.262Q177.691,357.369,176.683,359.087Zm-23.656-20.233c7.768-6.85,13.193-17.68,23.751-20.53,10.272-2.045,15.506,10.18,12.246,18.544-2.423-3.056-.467-6.851-3.111-6.763-1.5.109-2.134-.862-2.938-1.719-1-.7-2.256-3.488-3.592-2.516a2.337,2.337,0,0,1-2.329.2c-5.345-1.369-11.03,3.53-14.615,7.031-8.787,8.658-.686,17.008-6.347,15.134l-1.917,1.773c-1.831-2.489-3.711-4.682-5.289-7.244Q150.993,340.85,153.027,338.854ZM80.86,341.8a30.785,30.785,0,0,1,3.923-11.06,15.459,15.459,0,0,1,2.662,3.182c1.284,2.067,1.13,2.759-.91,4.031-3.578,2.3-.333,4.13-5.7,10.644A24.449,24.449,0,0,1,80.86,341.8Zm67.3,29.152c-3-4.265-12.284-3.449-16.445-.947,1.478-4.831,2.545-9.527,1.094-14.486a154.74,154.74,0,0,0,13.483-10.445q3.411,3.988,6.843,7.955a1.389,1.389,0,0,1,.309,1.72c-4.629,8.184-5.628,9.247-.972,17.974L148.9,372.6C148.73,372.224,148.474,371.571,148.16,370.948Zm28.125,55.166c-.672-.86-2.087-1.239-3.238-1.6-1.412-.514-1.155.729-1.038,1.831-.889-.323-1.633-.61-2.387-.865-1.016-.343-2-1.229-3.116-.108-.134.135-.863-.1-1.133-.357-2.811-2.676-6.427-4.156-9.485-6.449a31.066,31.066,0,0,1-6.711-7.224c2.146.508,3.807,1.923,6.037,2.129a14.215,14.215,0,0,1,3.766,1.375c5.923,2.782,11.969,5.33,17.6,8.678,2.855,1.575,5.644,3.293,8.594,4.664a34.173,34.173,0,0,1,7.322,4.864c1.575,1.242,3.081,1.788,4.653,3.228-3.9,1-10.155,2.054-11.876-2.3a5.5,5.5,0,0,0-2.962-3.279A15.7,15.7,0,0,1,176.285,426.114Zm-28.666,27.324a2.661,2.661,0,0,0,2.14,2.231c-1.534,1.027-3.283.829-5.019.958q-.892-1.075-1.741-2.186C144.537,454.1,146.074,453.735,147.619,453.438Zm2.756,9.217c2.905-3.871,10.181-4.589,14.573-6.53.616,4.267-6.153,8.342-8.6,11.579A68.179,68.179,0,0,1,150.375,462.655Z" fill="#e31117"/><path d="M316.089,18.689C191.718,18.689,90.9,119.511,90.9,243.882S191.718,469.074,316.089,469.074,541.281,368.252,541.281,243.882,440.459,18.689,316.089,18.689ZM497.965,366.452a220.091,220.091,0,0,1-96.535,79.516A218.928,218.928,0,0,1,193.52,425.76,220.092,220.092,0,0,1,114,329.223a218.928,218.928,0,0,1,20.208-207.91A220.106,220.106,0,0,1,230.747,41.8,218.933,218.933,0,0,1,438.658,62.005a220.144,220.144,0,0,1,79.517,96.535,218.922,218.922,0,0,1-20.21,207.912Z" fill="#e31117"/><path d="M481.163,355.535c-.165.385-.111.256,0,0a105.2,105.2,0,0,1-3.883-13.932,36.2,36.2,0,0,1-3.468-2.459c-7.8.156-15.665.826-23.437.2a4.58,4.58,0,0,1-5.7-4.48c-1.412-2.105-2.832-4.205-4.283-6.283q.36-1.194.667-2.4c-3.228-4.006-3.764-9.375-5.722-14-3.1-7.226-8-13.7-10.2-21.307-1.546-4.017-.979-9.953-4.9-12.491a7.162,7.162,0,0,1-3.323-4.32,7.419,7.419,0,0,1,.561-5.289c2.3-8.726-7.328-16.673-3.981-25.8-.214-.186-.429-.373-.644-.558a15.466,15.466,0,0,0-10.3-12.085c-.174-.519-.326-1.03-.468-1.563,9.791-8.15,6.988-21.9,3.413-32.5-3.065-11.674-14.281-18.154-25.793-18.709-1.527-4.065,1.813-7.469,3.689-10.739,2.606-14.246,1.058-29.259-1.06-43.492-.411-.17-.829-.329-1.248-.484a16.929,16.929,0,0,0-5.473-13.063c1.169-2.9-.458-3.38-3.031-3.537l-2.233-2.607a627.8,627.8,0,0,1,2.253-77.41q1.143-12.561,2.791-25.069A1.159,1.159,0,0,0,374.234,0c-7.143,31.366-6.285,66.956-6.312,99.824-5.057-5.416-10.215-10.751-14.944-16.461-4.441-2.116-8.665-.95-13.3-.587-12.011.7-23.988,1.519-35.957,2.061-16.29-.3-25.248,13.846-33.467,25.766a14.217,14.217,0,0,0-7.081,5.47,635.915,635.915,0,0,0-14.256-94.179c-.332-1.446-2.557-.834-2.225.614a631.379,631.379,0,0,1,11.475,65.886c3.84,28.617,2.03,57.293,4.251,86.136a65.746,65.746,0,0,0-10.21,1.621c-19.759-160.351-24.009-157.109-2.23.593A51.148,51.148,0,0,0,221.912,197.1c-3.879,6.637-13.47,20.745-2.724,25.246a81.6,81.6,0,0,0-1.756,23.813c-23.64,2.365,2.074,51.8-18.156,60.655-.894,2.647-2.609,5.512-5.27,6.743-3,5.04-7.151,9.388-9.588,14.695q.183.6.365,1.2c-5.237,6.69-10.269,14.39-11.639,22.89-6.191,2.97-12.68,4.38-17.875,9.274-4.638,3.092-9.526,5.4-12.8,10-.218,4.307-.677,8.6-1.236,12.876,14.417,14.4,14.344,17.484,32.705,5.6a14.555,14.555,0,0,0-2.819,11.365c-10.835,15.2,2.6,28.475,15.126,36.553,10.108,9.877,25.574,14.306,37.843,5.527a193.728,193.728,0,0,0,36.459,1.607c7.728,13.845,85.1.348,97.677,7.778,14.158,12.361,31.221,39.969,52.322,24.711,19.514-17.368,3.21-38.137-4.068-57.083,7.867-.636,15.7.318,23.424-.154,15.212-2.666,31.27-15.908,29.485-32.6a13.748,13.748,0,0,0,1.793-3.5c-4.6-5.47,1.861-13.96,8.365-11.071a20.8,20.8,0,0,1,4.223-.153c2.289-5.916,4.913-11.695,7.39-17.534ZM258.917,322.1a6.9,6.9,0,0,1-3.636,1.933c-4.956,4.121-9.271,14.092-16.788,8.035,1.494-4.94,9.41-15.105,6.3-19.478-2.2-13.414,12.03-19.179,14.9-6.342C264.954,310.007,262.759,318.06,258.917,322.1Zm142.656,13.477c-1.377,6.008-10.367,7.186-13.214,1.727a80.695,80.695,0,0,1-4.238-11.815c-1.751-6.031,5.287-11.47,10.621-8.165C397.942,318.8,402.305,332.171,401.573,335.574Z" fill="#e31117"/><path d="M647.986,314.7c-1.527-2.141-2.974-4.321-5.186-5.849a5.809,5.809,0,0,1-2.226-4.357c-.334-2.9-.884-3.451-3.264-3.794-1.21-.174-1.572.238-1.239,1.407.545,1.915.54,1.909-.989,3.145-.646.829-1.1,1.8-2.311,1.83-2.42.547-4.909.333-7.373.428,1.538-1.033,4.85-.412,4.551-2.943-1.219,1.608-4.264,1.573-6.164,2.066-5.6.721-10.044,4.259-14.649,7.186-5.221,3.946-5.831.213-11.521,8.334l-2.709-1.528c1.857-2.7-.967-4.147-2.741-5.748,3.271-1.221,4.934-3.186,4.829-6.694.6-2.436-1.179-1.791-1.818-3.2-.021-1.333-.932-2.606-.232-4a7.84,7.84,0,0,0-3.176-5.425c.978-1.435,1.6-4.243,3.12-4.783,1.036-.207.248-1.1.623-1.56.1-1.5-2.018-.866-1.989.4.164,1.5-1.472,2.9-2.091,4.25l-.2-.079q.282-2.709.563-5.413l-.721.628c.312-2.158,1.417-3.633,2.2-5.578a4.573,4.573,0,0,1,.75-1.441c.772-.726,1.288-1.393.261-2.43.917-1.613,2.719-2.955,2.8-4.85-1.74-2.3-2.78,3.078-3.174,3.927-2.086.154-1.821,1.455-1.7,2.757-.267-.287-.366-.352-.356-.389.547-1.868-2.59-1.885-1.823.3.026,2.192-1.568,4.111-2.077,6.211a2.047,2.047,0,0,1-2.423,1.694c.549-2.125,1.008-4.247,1.662-6.306.383-1.208.311-1.521-1.141-1.706a5.549,5.549,0,0,0-.007,2.725c-.262,1.642-.686,3.26-.9,4.906-.122.918-.64,1.149-1.406,1.364.263-1.9.527-3.683.751-5.477.062-.5-.054-.979.579-1.3.185-.093.153-.925-.007-1.328-.259-.653-.82-.481-1.309-.2-.859.408-.211,1.114-.009,1.688l-1.525.083a30.879,30.879,0,0,1,.187,8.108l-2.67-.589c.076-1.387-.344-2.1-1.173-2.092.033.675.066,1.353.1,2.046-3.545.852-3.5.414-3.351,4.182-3.316-3.335-3.289.58-7.487,1.925-.817.076-1.034-1.406-1.8.433-.933,2.191-1.067,4.3,1.148,6.3a47.056,47.056,0,0,0-9.046-1.909c1.783-5.249.809-10.089-.7-15.216l-.373.08c-.51,2.449-.222,5.09-2.135,7.066-4.818,4.891-8.75,10.647-9.051,17.748a79.67,79.67,0,0,1,3.9-27.587c8.8-4.221,14.572-14.728,13.583-24.446,9.138,4.46,1.011,13.287,17.627,10.055-1.192-3.257-4.7-5.23-7.045-7.692a5.286,5.286,0,0,0-4.395-1.389c-1.735.242-2.892-.8-3.985-1.989,2.61-.323,5.395-1.6,7.707.155,2.2,1.583,4.389,3.77,7.321,3.386,1.4-.148,2.787-.4,4.172-.651,2.02-.372,2.305-1.018,1.307-2.826-1.311-2.344,2.356-.058,3.892-2.875.757-1.117,1.573-2.194,2.376-3.28,1.466-1.763-2.562-2.043-3.55-2.725-1.848-.746-1.114-3.249-1.006-4.784.95-4.714-5.1-1.864-7.512-1.681-8.227,2.287-1.208,12.421-15.726,13.259.884-2.854,1.2-4.179,3.8-5.857,1.48-1.06,1.424-2.731.721-4.236a20.191,20.191,0,0,0,1.4-6.56c.85-5.563,6.432-6.075,2.64-15.072-3.82-8.343-13.864-13.241-22.633-10.321-4.455,1.431-9.219,2.419-13.454,4.32-3.39,3.491-4.783,7.583-3.553,12.377,1.77,5.2,2.025,11.715,7.131,14.889,8.739,6.428,4.185,7.429,17.11,9.663,1.727.3,2.709,1.065,2.882,2.725a83.1,83.1,0,0,0-12.53,23.65c-3.969,1.764-8.415,2.251-12.627,3.247-.212-.365-.424-.731-.626-1.1l-.432.108c-.182.449-.345.908-.522,1.36a52.9,52.9,0,0,0-6.649,2.018,11.777,11.777,0,0,0-.394-1.491c-.895.238-1.163,1.6-1.634,2.339a30.568,30.568,0,0,0-12.271,9.765,22.482,22.482,0,0,0-7.422-.982,13.747,13.747,0,0,0-8.65.788c-2.68.694-3.857,3.654-6.121,4.74-.027.361-.144.853-.344.89-2.383.621-5.622,2.082-5.936,4.805-1.64-24.8-19.65-51.524-46.747-50.742-18.139.174-31.391,16.737-33.049,33.875-3.668,28.4,21.086,50.408,45.937,58.694a11.64,11.64,0,0,0,3.92,10.262A9.908,9.908,0,0,1,456.266,363c.813,1.249,1.329,2.75,2.329,3.8a40.11,40.11,0,0,0,4.649,3.816,1.667,1.667,0,0,1,.764,1c-1,.8-2.5,1.056-3.264,2.087-2.4-.323-.822,5.6-1.59,7.054a9.9,9.9,0,0,1-1.4-3.342c-.189-.528-.264-1.242-.648-1.531-1.7-1.277-3.491-2.431-5.39-3.726.411-1.373.839-2.807,1.291-4.318-1.834-.919-2.132.4-3.986-.947-1.5-.9-1.979,1.683-3.258,2.1-1.035.614-2.177,1.046-3.5,1.659,3.331,3.151,6.674,6.178,7.662,10.888a2.057,2.057,0,0,1-.255,1.21c-1.026,2.195-1.655,2.826-.631,4.547l-57.7-1.4c-24.39-.96-64.349-4.184-68.29,28.323-.067,1.484,2.24,1.481,2.307,0,2.562-24.71,32.341-27.945,52.188-26.35,24.458.557,48.912,1.246,73.37,1.82,1.655,2.161.661,5.332,3.09,7.156.489.854,2.224,4.817,2.992,4.864,1.395-1.632,3.006-3.275,4.841-1.234-4.2,1.38-7.809,3.49-12.1,4.431a6.931,6.931,0,0,0-8.278-4.188,296.965,296.965,0,0,0-36.574,13.736q-4.83,2.177-9.576,4.533a6.94,6.94,0,0,0,.459,12.223c-2.254,1.09-3.067.061-2.868,2.858,0,.058.073.117.154.236,6.117-1.346,11.737-2.636,16.611-6.887A263.043,263.043,0,0,1,436.9,416.673a9.924,9.924,0,0,0-1.064,2.944c-1.472,6.288-4.537,12.1-6.076,18.426-.219,3.841-2.7,6.658-4.722,9.79a50.794,50.794,0,0,0-9.258-.156c-1.864.224-3.639,1.159-5.5,1.415a54.594,54.594,0,0,1-10.163.851c-3.593-.189-6.275,1.642-9.28,2.929,5.009,1.034,10.38.322,15.472.084,5.67-.54,11.089-2.866,16.86-2.187,6.666.247,13.065,2.219,19.283,4.483,4.031,1.518,5.528,5.886,5.277,9.909-.245,1.534-1.247,2.913-1.865,4.331-.805,1.6-1.327,3.477-2.5,4.737a45.53,45.53,0,0,0-6.659,9.41c-1.453,2.9-1.569,7.092,1.584,8.875l.235-.26c-3.672-5.479,2.4-10.329,6.013-13.8,4.628,5.244,12.329,3.512,18.259,1.866l.231.239a6.766,6.766,0,0,1-2.735,2.8c-4,2.568-6.575,5.985-6.333,10.952.592,4.183,2.146,8.718,5.688,11.343,1.388.941,2.055,2.067,1.561,3.738a8.9,8.9,0,0,0,2.979-2.51c2.41-4.646,4.679-8.937,6.091-14.092a5.856,5.856,0,0,1,.319,1c.249,3.25,3.857,4.973,6.537,5.352,1.472.208,1.769-.19,1.432-1.672,1.959-.876,3.6-2.51,5.873-2.55,2.764,0,3.4-2.8,2.443-5.054,4.512,3.287,3.867,2.975,7.8-.567l2.493,1.93c.438-1.144-.146-2.2-1.718-3.229,1.5-4.225.851-4.368,4.677-1.619,1.819,1.411,4.123,2.2,5.413,4.3,1,1.248,1.642-.731,1.951-1.589.534,1.349,1.125,2.084,2.577,1.229,1.55-.716-.813-3.926-1.863-2.1l-8.54-4.143-.041-.317c.767-.153,1.645-.624,2.281-.4,2.512.879,4.95,1.972,7.411,3,1.341.955.191,1.509,3,2.015,1.533-2.512-.883-2.423-2.595-2.678-2.479-1.012-4.93-2.094-7.439-3.172.976-.586,1.332-1.911,2.542-1.562,3.032.675,6.078,1.289,9.105,1.981,1.443.335,2.03,2.184,3.74,1.66.21-.782.422-1.568.556-2.066l2.914-.028c-.134-.535-.2-.8-.3-1.18,2.055.47,4.143.095,5.981,1.322.374.251,1.378-.205,1.93-.575.217-.146.134-1.017-.065-1.441-.619-1.638-2.115-.406-3.318-.4-1.622-.081-3.24-.259-4.844-.4-.292-1.443-.575-1.628-1.958-1.441-3.241.319-6.47-.791-9.676-1.206a7.479,7.479,0,0,1-1.726-.809l.116-.222,1.05-.061-7-3.758a44.313,44.313,0,0,1,6.1.03c.216.013.427.319.616.513,1.024,1.063,3.32.057,2.717-1.562-.266-.648-2.281-1.3-2.657-1-.136.109-.176.34-.315.442-1.1.914-6.141,0-7.922.146-.518-3.564-1.3-7.958-5.421-9.055-1.338-1.046-2.453-2.446-3.7-3.607,1.184-3.124-.63-3.2-2.818-4.671-3.217-3.232-7.356-.641-10.756.826-.331-2.022,0-4.32-1.149-6.2-.126-.2.121-.638.195-.965l.486-.059c.384.92.769,1.839,1.18,2.821.531-.374.305-1.749.062-2.2-.893-1.3-.194-2.4.212-3.555.717-2.552,2.718-4.319,4.064-6.575a23.148,23.148,0,0,0,8.8,5.39c.848.332,1.7.381,1.384,1.7.068,1.465,1.708,2.395,2.7,3.471,1.7-2.08,5.464-4.192,4.293-7.485-.7-2.882,1.522-4.3-2.18-5.6a3.845,3.845,0,0,1-2.414-4.3c.126-1.1.358-2.2.421-3.307.057-1.032-.538-2.223-.1-3.22,1.84-2.91-1.917-.556-3.144-7.771,2.45.56,4.659.632,7.07,1.024a9.336,9.336,0,0,1,3.745,2.98c1.829,3.885,5.768,5.8,9.05,8.224,1.884,2.108,4.437,3.522,6.5,5.389,2.578.863,5.065,2.428,7.864,2.159l.1-.324c-.165-.215-.288-.544-.5-.627-1.4-.535-1.671-1.91-1.934-3.027-.559-3.185-3.338-4.851-4.952-7.357-1.571-3.012-2.5-5.68-4.178-8.768l3.116-.1c.828-2.953,2.943-3.267.644-4.931,2.254-1.833,1.168-4.022.27-6.246-.376-1.623-.642-1.827-2.338-1.9-1.37-.061-2.736-.209-4.1-.319-.014-.137-.028-.274-.041-.41,1.377-.117,2.3-1.607,3.909-1.07a.841.841,0,0,0,.62-.18c2.494-2.134,8.5-4.259,5.6-8.348l-.286.061.653-2.389c-2.153-2.185-3.083-3.638-6.426-3.881-1.645-1.434-3.926-.55-5.84-1.342-.681-.179-1.507-1.585-1.25-2.107.649-1.317,1.362-2.6,2.04-3.882,3.794.478,7.612.537,11.283,1.8,5.054,1.908,12.731,2.2,13.724,8.768.241,2.452,1.355,5.565-1.332,7.13-4.813,2.258-6.919,6.93-8.862,11.569-2.447,5-1.772,7.813-.183,12.854.574,3.562,1.555,5.849,4.311,8.255,1.369,1.568,3.15,1.3,5,.828,1.639,5.978,2.065.444,9.815-.812,6.589-1.524,9.6-7.13,11.643-13.12a4.662,4.662,0,0,1,.243,1.318c-1.645,9.839,3.665,7.9,2,16.227l1.307-.411c-.1,3.753,3.866,5.463,7.011,5.471,1.435-.13,2.843-.522,4.273-.736,5-.746,7.465-8.94,5.277-13.027,3.183,1.309,4.1.394,6.517-1.678.681-1.192.272-2.893.541-4.233a13.355,13.355,0,0,0-2.355-9.141c-3.728-6.237-9.266-5.346-10.469-8.92,5.247-.686,10.324.5,15.49,1.124a4.947,4.947,0,0,0,4.581-1.308c2.813,2.018,5.619.868,8.5.032,3.426,8.3,4.14,18.485,11.461,24.441l.244-.194a41.152,41.152,0,0,1-1.38-7.928c.112-6.012-.853-11.881-1.76-17.79,6.077,5.791,12.417,18.4,21.959,17.375-4.77-5.759-4.5-1.8-7.634-10.278-3.309-7.96-7.193-16.321-14.327-21.615-2.82-1.858-5.788-3.545-8.224-5.912l.457-.649a29.343,29.343,0,0,0,11.779,6.431c5.361,1.819,10.746-.428,16.039-1.177a18.017,18.017,0,0,0-7.726-2.155,2.9,2.9,0,0,1-1.368-.36,34.567,34.567,0,0,0-12.229-4.77c-1.681-.34-3.228-1.318-4.906-1.694-2.748-.616-5.51-1.049-7.841-2.838-1.686-1.294-3.474-2.456-5.217-3.676,4.605.53,8.957,2.055,13.677,1.1a13.471,13.471,0,0,1,5.273.193c4.31.874,9.835,2.1,13.2-1.56-3.666,1.617-7.179.284-10.5-1.452-5.617-2.275-11.319-4.4-17.447-4.583-17.965-3.895-16.941,3.83-20.23-.6-2.5-2.9-5.506-4.918-9.584-4.593-.105-.231-.213-.468-.414-.907,3.367-1,6.228.82,9.375,1.7,3.068.832,6.609,3.479,9.729,1.749l-4.012-2.037.089-.273,4.932.023-2.516-2.567a25.275,25.275,0,0,1,4.2.9c6.191,1.973,12.659,2.059,19.084,2.26,3.754.326,7.544,1.6,11.126-.443-2.429-1.044-4.738-2.045-7.306-2.052a7.435,7.435,0,0,1-4.464-1.685,23.029,23.029,0,0,0-11.6-4.079c-5.036-.49-9.805.916-14.49,2.6-1.46.606-2.8-.251-4.391-.461,12.62-4.5,10.671-15.53,18.739-16.484-6.053-1.455-9.182,5.852-13.454,8.744a20.243,20.243,0,0,0-5.362,5.082c-.591.917-1.161,2-2.345,2.168a20.208,20.208,0,0,0,.916-3.441c-.048-1.815,4.422-3.784,5.727-5.345,4.422-3.789,8.145-8.672,13.289-11.508a17.974,17.974,0,0,0,3.932-2.345c3.111-1.2,5.916-3.183,9.286-3.574,0-.02.027-.238.083-.711,1.492,1,2.606,1.755,4.011,2.714-.4.706-1.262,1.513-.483,2.232.559.485,1.274,1.139,2.115.228,1.181-.593,2.557,3.068,3.3,3.891l-.171.133-3.248-1.411c.255,4.655,4.307,5.125,7.959,4.784,2.605.05,5.249,0,7.841.02,3.922.358,10.617,3.358,13.862,1.57,1.456-.733,3.466-1.006,4.6-2.087a17.982,17.982,0,0,1,4.3-2.815c1.047-1.151.449-3.118.719-4.57C648.438,324.125,649.626,319.3,647.986,314.7ZM497.519,482.983c-.407-.356-.517-1.05-.761-1.59a14.1,14.1,0,0,1,3.561,1.14C499.353,483.3,498.448,483.8,497.519,482.983Zm6.794-3.186-3.189-.59.068-.328,3.207.348Q504.356,479.512,504.313,479.8Zm9.634,1.961c-.2.025-.48-.561-.723-.867l.235-.353,2.32.211.084.409A9.87,9.87,0,0,1,513.947,481.758Zm-5.314-3.811,7.313,1.255-.051.3-7.326-1.18Zm1.938,3.368L504.64,479.9C505.883,478.677,510.577,480.912,510.571,481.315Zm-10.86-9.164,7.329,4.424-.1.337-8.373-1.321ZM498,476.332l3.63.95-.039.268-3.674-.822Zm-1.4,2.866,6.457,1.379c-1.486,1.583-1.549,1.6-3.29.916a7.211,7.211,0,0,1-3.439-1.895Zm29.966-62.054c-.047-2.7.6-3.432,2.309-2.736Zm49.2-52.343c7.432,1.564,15.69,2.637,15.052,12.207a21.219,21.219,0,0,0,.39,6.678,3.673,3.673,0,0,1-.594,3.386l-1.581-.321c-1.3-5.307-2.163-10.671-6.425-14.453-2.4-1.909-3.552-5.3-6.43-6.579-.234-.075-.393-.381-.586-.58Zm14.894-82.013a5.363,5.363,0,0,1,1.1-.769l.179.218-.919,1.654C590.828,283.328,590.565,282.9,590.663,282.788Zm.051,6.108.241.065c-.09,1.96-.179,3.921-.272,5.945l-2.439-.691C589.083,292.409,589.9,290.652,590.714,288.9Zm-1.122-3.933.361.124q-.677,1.931-1.354,3.862l-.414-.141Zm-4.1,5.582c.113-.435.869-.7,1.332-1.046l.214.252q-.828,2.072-1.654,4.145l-.323-.007C584.5,292.727,585.214,291.62,585.5,290.545Zm-1.948,1.234a4.566,4.566,0,0,1,.887-1.374l.383.239-.46,2.213-.267.124C583.891,292.577,583.472,292.124,583.547,291.779Zm-5.28,34.685c-.4,1.167-.765,2.24-1.189,3.483C576.158,327.634,576.392,326.952,578.267,326.464Zm-21.8-17.839c1.194,2.287,2.738,4.444,5.444,5.541a12.222,12.222,0,0,0-6.608,3.611c-.289-.808-.514-1.438-.74-2.068l-.295-.016c-.4,2.3.59,3.247-1.939,4.455C553.463,316.239,554.2,312.13,556.471,308.625Zm-4.79-83.931a42.657,42.657,0,0,1-6.146-2.156c-.863-.343-1.029-.71-.881-1.615.6-3.211,4.6-2.976,7.059-3.892,2.081.13,4.042,1.441,6.019,2.112,1.828.778,1.361,2.758-.483,3.142C555.261,222.97,554.087,224.738,551.681,224.694Zm9.081,37.512c.544,7.52-3.8,14.087-9.71,18.3A81.153,81.153,0,0,1,560.762,262.206ZM545.037,285.88q1.054-.291,2.066-.644a85.371,85.371,0,0,0-3.448,20.466c-1.265-6.308-4.081-11.994-6.9-17.683C539.518,287.322,542.288,286.638,545.037,285.88Zm-4.143,56.444a68.028,68.028,0,0,1-6.541-10.88C537.056,334.686,540.051,337.754,540.894,342.324Zm-8.484-53.187.281-.074c-.284,3.911,1.032,7.847,1.51,11.725a24.776,24.776,0,0,1-6.329-10.253C529.352,290,530.873,289.546,532.41,289.137Zm-12.658,5.985a22.4,22.4,0,0,1,4.8-3.174c-.473,6.272,2.432,11.986,4.719,17.635l-.3.121a38.612,38.612,0,0,0-2.675-3.577c-1.141-.981-.694-2.543-1.778-3.525-2.241-1.891-4.1-4.736-7.212-5.108C518.091,296.669,518.9,295.868,519.752,295.122Zm-3.374,3.367c-.162.486-.781.736-.227,1.266.1.1-.148.55-.269.948-.357-.229-.726-.379-.994-.563Q515.629,299.314,516.378,298.489Zm-4.412,61.218a23.288,23.288,0,0,0,1.13-9.53c-.184-2.014,3.476-.453,4.363-.013a1.952,1.952,0,0,0,2.968-1.518,1.82,1.82,0,0,1,.58.276c2.683,2.748,6.746,2.936,10.142,4.319,2.54.849,3.469,3.355,5.737,4.587-1.355-6-5.433-10.641-11.784-11.03,3.822-1.591,6.875-3.939,11.124-3.929a1.117,1.117,0,0,0,.759-.429c1.761-3.071-3.7-5.26-6.384-4.583.066-.41.119-.737.172-1.064,3.669,1.056,5.895.594,8.119,4.353,2.56,3.3,2.918,7.462,2.822,11.466a31.486,31.486,0,0,1-3.219,4.782,57.033,57.033,0,0,0-17.949,8.627c-1.57,1.54-3.366,1.639-5.345,1.606-2.892-.167-5.884.614-8.637-.539A17.19,17.19,0,0,0,511.966,359.707Zm12,7.674c3.083-1.731,6.047-3.781,9.4-4.951A29.429,29.429,0,0,1,523.968,367.381Zm-29.483-16.95c1.883-.064,3.773-.051,5.646-.225,1.518-.1,2.968-1.025,4.525-.737,1.272.365,5.473.189,5.789,1.484.711,5.724-2.017,11.958-7,14.908a28.8,28.8,0,0,1-2.805-1.487c.138-.755,1.422-2.329,0-2.435a7.729,7.729,0,0,0-2.96.377,26.5,26.5,0,0,1-3.127-2.934c1.652-.872,3.228-2.617,2.653-4.6-1.822.681-3.548.618-5.311,1.121a32.155,32.155,0,0,1-2.721-5.3C490.94,350.5,492.714,350.491,494.485,350.431Zm-3.053-5.305a33.794,33.794,0,0,1-3.758,1c-.3-1.116-.561-2.245-.785-3.385A11.767,11.767,0,0,1,491.432,345.126Zm-70.675-15.5c-12.979-12.607-18.322-32.788-10.586-49.567,6.873-18.127,29.137-24.948,45.636-15.474,17.6,8.993,25.512,29.212,26.724,48-2.185.847-3.52,2.9-5.217,4.418a7.715,7.715,0,0,0-2.226,5.766,32.288,32.288,0,0,1-.115,6.724c-.055,2.1.821,3.949,1.618,5.819,1.208,3.75,3.227,6.531,7.645,5.808a53.514,53.514,0,0,0,1.224,5.675c-1.426.226-4.228,2.334-5.122,1.9-.8-.465-1.533-1.042-2.2-1.509a51.907,51.907,0,0,0-1.68-6.461,41.277,41.277,0,0,0-2.946-5.092c-.877-1.538-2.384-2.688-2.589-4.661-.163-2.112-2.592-3.768-1.84-6.012.058-.128-.166-.38-.267-.591-3.878,4.615-1.182,10.524-.009,15.627.729,2.389.771,5.076,1.727,7.345,1.362,2.811-1.585,4.355-2.081,6.8q-.327-.143-.657-.28a17.833,17.833,0,0,0-.547-7.065,49.375,49.375,0,0,0-6.018-14.748,37.71,37.71,0,0,1-4.541-6.946,8.855,8.855,0,0,1-1.187-2.811c-.325-2.421-1.417-7.473-4.576-6.746,1.365,2.244.582,4.117.157,6.387a6.077,6.077,0,0,1-.348,2.244c-1.039,2.38.692,8.454.919,11.386-.274.041-.546.078-.82.115-.818-1.526-1.2-3.31-2.309-4.689a7.028,7.028,0,0,0-1.492,5.2c-1.12.319-3.252-.15-3.39,1.454a1.193,1.193,0,0,0,1.041,1.16,1.162,1.162,0,0,0,.824,2.147l2.9-.543c.817,3.143,2.994,5.672,4.5,8.528C440.946,345.045,429.579,338.668,420.757,329.621Zm42.378,47.061a10.086,10.086,0,0,1,.466-1.336c-.057.722-.093,1.448-.1,2.17A9.045,9.045,0,0,0,463.135,376.682Zm4.755-19.744a1.476,1.476,0,0,1-.2-.541l.323.146C467.972,356.675,467.926,356.806,467.89,356.938ZM459.3,383.15c.014-.051.025-.1.036-.151a1.006,1.006,0,0,0,.167.266l-.379.662C459.176,383.669,459.234,383.41,459.3,383.15Zm-.422,3.72a1.071,1.071,0,0,0,1.467-.43,35.622,35.622,0,0,0,3.253-6.158c.166,2.294.519,4.573.858,6.858-1.846.206-3.7.3-5.556.32Q458.885,387.165,458.879,386.87Zm1.769-26.405c-1.429-1.012-2.221-2.918-3.468-4.176-1.555-1.6-3.405-2.98-4.477-5q1.476.5,2.957.95a55.98,55.98,0,0,0,5.132,4.915c2.819,2.524,5.841,5.442,6.952,9.139l-.3.082C465.2,364.329,463.907,361.108,460.648,360.465Zm.685,35.482c-1.375-1.7-1.646-4.108-2.146-6.167,1.757-.023,3.575-.1,5.4-.284C464.541,392.114,462.868,393.953,461.333,395.947Zm-4.664,10c2.069-.8,4.4-1.089,6.185-2.5,1.018-.787,1.269-.756,1.9.513-3.107,2.865-6.893,3.569-11.067,3.2C454.677,406.757,455.656,406.308,456.669,405.95Zm-5.318,56.639c-.367-2.056-1.677-3.633-3.4-5.291,2.892.992,4.945,2.839,7.383,4.3Zm14.7,2.624-14.31-8.975c5.945-.151,7.587-3.022,11.608-6.677l.284.165c.428,3.309-.5,6.642.873,9.808.762,1.78,1.226,3.687,1.821,5.539Zm9.5-36.815c-1.388,2.079-2.6,4.186-2.678,6.807-.018.583-.622,1.208-1.074,1.707-1.611,1.777-3.366,3.431-4.881,5.284a5.831,5.831,0,0,1-3.148,2.147,18.757,18.757,0,0,0-4.2,2.111c-3.3,2.03-6.44,4.294-10.047,5.734-4.5,2.607-8.908-1.064-13.34-2-3.092-.84-6.238-1.48-9.383-2.21,3.015-2.3,6.739-.4,10.1-1.392a25.383,25.383,0,0,1,3.584.211c3.611-.465,7.826-1.417,10.558-3.846l-8.42-2.475c3.419-.506,6.9-.069,10.236-1.252,6.23-1.954,12.929-3.516,17.224-8.856-6.774,1.389-13.292.834-20,2.233,4.289-4.844,15.029-10.228,13.809-17.856-1.56,1.377-2.652,3.224-4.311,4.455-4.894,2.415-10.3,3.865-14.706,7.241-6.069,3.741-7.079,7.528-11.236,12.784q-.282-.19-.563-.382c6.064-7.4,6.485-13.219,4.139-22.271,4.347-1.913,10.964-1.747,12.67-7.059.975.225,2.247-.835,2.938.672,1.14.309,2.271,1.219,3.434,1.429a23.615,23.615,0,0,0,11.356-1.763c.874,3.257,1.254,6.2,2.643,9.238a29.3,29.3,0,0,0,5.256,8.252A1.122,1.122,0,0,1,475.548,428.4Zm9.568-73.211c2.348-2.868-1-2.7-2.955-3.547l.11-.272c1.5-.183,3-.406,4.5-.57a35.188,35.188,0,0,0,3.027,6.09,30.739,30.739,0,0,0-3.717,3.27C484.12,358.625,483.839,357.143,485.116,355.187Zm6.612,10.837c-1.216-.966-1.235-.994-2.5-.108-.959.67-1.86,1.422-2.889,2.215-.147-.276-.475-.614-.405-.806.958-3.315,2.99-6.073,6.371-7a26.9,26.9,0,0,0,2.812,2.877A6.943,6.943,0,0,0,491.728,366.024Zm19.057,5.848,1,.018.076-.256-.944-.789.047-.2,2.157.273C511.784,372.515,511.5,372.624,510.785,371.872Zm30.294,22.469c-.629-3.073-1.076-6.189-4.061-8.3,1.494.2,10.748,6,11.315,7.09Zm12.994-.6-12.973-8.97c5.562-.07,7.691-3.286,11.426-6.743l.358.2c.583,4.016,1.465,7.985,2.179,11.979C555.328,391.61,555.723,393.043,554.073,393.744Zm16.465-26.072a15.66,15.66,0,0,0,.642,1.658c-2.658.3-5.265-.82-7.682.759-5.22.317-10.092,2.55-14.712,4.893-3.451,1.869-11.371,7.906-15.151,6.592-7.139-2.6-14.192-4.86-21.848-5.413,1.236-1.657,3.105-2.422,4.721-3.628,1.112-.718,2.111-1.674,3.679-1.326,3.974.247,8.041.129,12.037.2,2.009-.01,4.021-.248,6.027-.206,1.814.037,3.67-.382,5.449.469a6.445,6.445,0,0,0,2.039.25l.047-.171-1.506-1.072c8.176-.906,16.051-3.307,24.183-4.423C570.33,366.081,570.072,365.817,570.538,367.672Zm-2.279-4.328c-2.239.6-4.6.717-6.861,1.23-4.139,1.092-8.324,1.936-12.545,2.64-6.724,1.554-13.633.905-20.464.937a32.182,32.182,0,0,0,10.429-7.618c1.738-.614,3.48-1.218,5.236-1.778,4.278-1.5,8.78.128,13.141-1.028a6.727,6.727,0,0,1,2.363.2c.729.147,1.6.006,2.105.6,1.627.787,3.245,1.6,4.9,2.319A2.954,2.954,0,0,1,568.259,363.344Zm-4.923-6.461h0a5.637,5.637,0,0,1,2.8,3.028c-1.772-.49-3.17-1.162-4.865-1.765v0l-1.366-.735C561.062,356.6,562.136,356.226,563.336,356.883Zm-2.635-1.3a34.216,34.216,0,0,1-12.862,1.546c5.778-1.69,11.437-3.211,16.567-6.216C563.594,352.838,562.928,354.783,560.7,355.582Zm6.525-12.5a4.733,4.733,0,0,0-1.611,2.4c-.778,3.859-6.154,4.515-9.1,6.17-3.819,2.014-7.988,2.982-12.125,4.087-.941.31-1.118-.031-1.059-.862,1.105-3.19,3.027-6.236,3.642-9.707,3.1-3.337,15.328-6.241,16.12-10.924-5.14,1.475-10.7,1.511-15.212,4.675.039-2.97,2.587-5.278,5.2-6.8a6.82,6.82,0,0,0,3.034-3.272c.795-1.623,1.981-3.049,2.862-4.636,1.027-1.848,2.489-1.849,4.2-1.27,2.6.174,2.7,1.924,3.79,3.7,2.288.369,4.463.715,6.635,1.081a.68.68,0,0,1,.425.307c2.9,4.143-.1,7.18-2.077,10.9C570.929,340.855,568.76,341.661,567.226,343.077Zm3.5,1.243c1.62-3.042,3.792-5.833,5.633-8.773a4.937,4.937,0,0,1,1.481-1.777,17.677,17.677,0,0,1,7.4-2.11l.1.322C580.542,336.116,576.462,341.088,570.73,344.32ZM593.4,326.732c-4.556,1.754-9.88-.715-13.931,2.5.672-2.517,1.353-4.869,1.914-7.251.307-1.3,1.136-2.614.218-4.012-.1-.145.031-.434.082-.919,3.273,4.5,7.36,8.723,13.219,8.932A9.289,9.289,0,0,1,593.4,326.732Zm12.181-6.081c-.234,1.48-2.008,1.46-3.107,2l-.231-.288c1.283-.962,1.514-2.9,3.362-3.446A10.32,10.32,0,0,1,605.576,320.651Z" fill="#e31117"/></g></g></svg>