<?xml version="1.0" encoding="utf-8"?>
<!-- Generator: Adobe Illustrator 25.0.0, SVG Export Plug-In . SVG Version: 6.00 Build 0)  -->
<svg version="1.1" id="Слой_1" xmlns="http://www.w3.org/2000/svg" xmlns:xlink="http://www.w3.org/1999/xlink" x="0px" y="0px"
	 viewBox="0 0 417.4 318.1" style="enable-background:new 0 0 417.4 318.1;" xml:space="preserve">
<style type="text/css">
	.st0{fill:#E31013;}
	.st1{fill:#F08183;}
</style>
<g id="sloy_2">
	<g id="Слой_1-2">
		<polygon class="st0" points="163,0 102.5,38.6 102.5,318.1 163,318.1 		"/>
		<polygon class="st1" points="184.7,318.1 163,318.1 163,0 184.7,3.9 		"/>
		<g id="sloy2_2">
			<g id="sloy_1_2_2">
				<path class="st0" d="M10.4,217.1c0-3.2,8.9-5.8,19.9-5.8s19.9,2.6,19.9,5.8v1.8L48.3,236l-2.6,6.3v1.2c0,0.8-0.7,1.6-2.1,2.2
					c-0.3,0.2-0.6,0.3-0.9,0.4c-4,1.3-8.1,1.9-12.3,1.8c-4.2,0.1-8.3-0.5-12.3-1.8c-0.3-0.1-0.6-0.2-0.9-0.4
					c-1.3-0.7-2.1-1.4-2.1-2.2v-1.2l-2.6-6.3l-2.1-17.1V217.1z"/>
				<path class="st0" d="M16.6,205.4c0.4,1,1.5,1.6,3.2,1.8c0.4,0.1,0.8,0.1,1.2,0.1c3.5,0.2,8.8-0.8,14.3-2.8s10.1-4.7,12.7-7.1
					c0.3-0.3,0.6-0.5,0.8-0.9c1.1-1.3,1.6-2.5,1.3-3.5c-0.1-0.1-0.2-0.7-0.4-1.1c0-0.1-0.1-0.2-0.1-0.4c-0.2-0.5-0.4-1.1-0.4-1.2
					c-0.4-1.2-2-1.8-4.3-1.9c-0.7-1.9-1.9-4.8-2.7-7.7c-1.4-4.6-2.4-9.9-2.4-9.9l-0.3,0.1c0.5,3.4,1.3,6.7,2.3,10
					c1,3.2,2,5.9,2.7,7.6c-0.2,0-0.4,0-0.6,0c-0.3-0.7-0.6-1.5-0.9-2.3c-1.8-4.5-3.2-9.7-3.2-9.7l-0.3,0.1c0.8,3.3,1.9,6.6,3.1,9.7
					c0.3,0.7,0.6,1.4,0.9,2.1l-0.6,0c-0.1-0.3-0.3-0.7-0.3-0.8c-0.3-0.9-1.5-1.3-3.3-1.4c-0.9-1.7-3.1-2.4-4.9-1.4
					c-0.9,0.5-1.5,1.3-1.8,2.3c-1.2,0.3-2.4,0.7-3.5,1.1c-2.3,0.8-4.5,1.9-6.5,3.1c-1.6-0.3-3.1,0.7-3.3,2.3c0,0.2,0,0.3,0,0.5
					c-0.6,0.6-0.9,1.4-0.7,2.2c0,0.1,0.2,0.5,0.3,0.8c-0.4,0.3-0.7,0.6-1.1,0.9c-1.4-3.7-3.5-9.4-5.4-14.9c-3-8.9-5.7-19.1-5.7-19.1
					l-0.2,0.1c0,0,2,8.2,5.7,19.1c2.1,6.4,4.1,11.7,5.4,15.1c-1.7,1.6-2.5,3.1-2.1,4.3c0.1,0.1,0.3,0.8,0.5,1.2
					c0,0.1,0.1,0.2,0.1,0.4C16.4,204.8,16.6,205.3,16.6,205.4z M36.4,188.8c-0.3-0.7,0-1.6,0.7-1.9s1.6,0,1.9,0.7
					c0.3,0.7,0,1.6-0.7,1.9C37.6,189.8,36.7,189.5,36.4,188.8L36.4,188.8z"/>
				<path class="st0" d="M47.9,215.7c1.9,0,3.4,1.5,3.4,3.3c0,1.2-0.6,2.3-1.6,2.9l2.6,21l-1.5,0.2l-2.6-20.7c-0.2,0-0.4,0-0.5,0
					l2.5,20l-3.1,0.4l-2.6-21.4c-1.4-1.3-1.5-3.4-0.2-4.8C45.1,215.5,46.6,215.2,47.9,215.7L47.9,215.7z"/>
				<path class="st0" d="M47.6,240c0.9-1.6,3-2.2,4.6-1.3c1,0.6,1.7,1.6,1.7,2.8l13.8,10l-0.5,0.3L53.7,243
					c-0.1,0.2-0.2,0.3-0.3,0.5l13.1,8.2l-1.1,0.7l-14.5-6.5c-1.8,0.6-3.7-0.4-4.3-2.2C46.2,242.3,46.6,240.9,47.6,240L47.6,240z"/>
				<path class="st0" d="M14.5,216.3c-1.8-0.6-3.7,0.3-4.3,2c-0.4,1.1-0.2,2.4,0.5,3.3l-9.3,19l1.3,0.6l9.2-18.8
					c0.2,0.1,0.3,0.1,0.5,0.2l-8.8,18.1l2.8,1.4l9.5-19.4c0.4-0.2,0.8-0.4,1.1-0.7c1.3-1.4,1.3-3.5-0.1-4.8
					C16.2,216.7,15.3,216.3,14.5,216.3L14.5,216.3z"/>
				<path class="st0" d="M3,237.4c-1.9,0.2-3.2,1.9-3,3.8c0.1,1.2,0.9,2.2,2,2.7l4,16.5l0.5-0.4l-3.1-15.9c0.2,0,0.4,0,0.6-0.1
					l2.6,15.2l1-0.8l-0.5-15.9c1.2-1.4,1-3.6-0.5-4.8C5.6,237,4.2,236.8,3,237.4z"/>
				<path class="st0" d="M28.1,210.1c0,0-0.1-0.1-0.1-0.1v-0.5c0-0.1,0.1-0.2,0.3-0.2c0,0,0,0,0-0.1v-0.5c0-0.1,0.1-0.2,0.4-0.3l0,0
					v-0.5c0-0.1,0.1-0.1,0.2-0.2c0,0,0-0.1,0-0.1v-0.5c0-0.1,0.1-0.1,0.2-0.2c0,0-0.1-0.1-0.1-0.1v-0.5c0-0.1,0.1-0.1,0.2-0.2
					c-0.1,0-0.1-0.1-0.1-0.1v-0.5c0-0.1,0.1-0.1,0.2-0.2c-0.1,0-0.1-0.1-0.1-0.1v-0.5c0-0.1,0-0.1,0.1-0.1c-0.1-0.1-0.1-0.1-0.1-0.1
					v-0.5c0,0,0-0.1,0.1-0.1c-0.1,0-0.1-0.1-0.1-0.1v-0.5c0-0.3,1.5-0.5,3.4-0.5c1.9,0,3.4,0.2,3.4,0.5v0.5c0,0.1,0,0.1-0.1,0.1
					c0.1,0,0.1,0.1,0.1,0.1v0.5c0,0.1,0,0.1-0.1,0.1c0.1,0,0.1,0.1,0.1,0.1v0.5c0,0.1-0.1,0.1-0.2,0.2c0.1,0,0.1,0.1,0.1,0.1v0.5
					c0,0.1-0.1,0.1-0.2,0.2c0.1,0,0.1,0.1,0.1,0.1v0.5c0,0.1-0.1,0.1-0.2,0.2c0,0,0.1,0.1,0.1,0.1v0.5c0,0.1-0.1,0.1-0.2,0.2
					c0,0,0.1,0.1,0.1,0.1v0.5c0,0.1-0.1,0.2-0.4,0.3l0,0v0.5c0,0.1-0.1,0.2-0.3,0.2c0,0,0,0,0,0.1v0.5c0,0.1-0.1,0.1-0.2,0.2
					c0,0,0.1,0.1,0.1,0.1v0.5c0,0,0,0.1-0.1,0.1c0.1,0.1,0.2,0.1,0.2,0.2v0.5l0,0c0.3,0.1,0.5,0.2,0.5,0.3v0.5l0,0
					c0.3,0.1,0.5,0.2,0.5,0.3v0.5l0,0c0.3,0.1,0.5,0.2,0.5,0.3v0.5c0,0.3-1.5,0.5-3.4,0.5s-3.4-0.2-3.4-0.5v-0.5l0,0
					c-0.3-0.1-0.5-0.2-0.5-0.3v-0.5l0,0c-0.3-0.1-0.5-0.2-0.5-0.3v-0.5l0,0c-0.3-0.1-0.5-0.2-0.5-0.3v-0.5c0,0,0-0.1,0.1-0.1
					c-0.1-0.1-0.2-0.1-0.2-0.2v-0.5C27.9,210.2,28,210.1,28.1,210.1z"/>
				<path class="st0" d="M64.6,253.8c0.1,1,1,1.7,2,1.5c0.9-0.1,1.6-0.9,1.6-1.8c1-0.1,1.7-1,1.6-1.9c-0.1-0.9-0.9-1.6-1.8-1.6
					c-0.9-0.2-1.8-0.3-2.7-0.4c-1,0.1-1.7,0.9-1.6,1.9C63.6,252.2,64.6,253.5,64.6,253.8z"/>
				<path class="st0" d="M65.4,254L65.4,254c0.5-0.3,1.2-0.2,1.5,0.3l2.5,4.8c0.1,0.2,0.1,0.5-0.1,0.7l0,0c-0.2,0.2-0.5,0.1-0.7-0.1
					c0,0,0,0,0,0l0,0l-3.5-4.1C64.8,255.1,64.9,254.4,65.4,254z"/>
				<path class="st0" d="M68.4,259.2L68.4,259.2c0.1-0.5,0.6-0.7,1-0.6l4.6,1.1c0.2,0,0.4,0.2,0.4,0.4l0,0c-0.1,0.2-0.3,0.3-0.5,0.3
					l-4.7-0.3C68.7,260.1,68.3,259.7,68.4,259.2L68.4,259.2z"/>
				<path class="st0" d="M67.6,250.8L67.6,250.8c-0.1,0.6,0.4,1.1,1,1.2l5.4,0c0.3,0,0.5-0.2,0.5-0.4l0,0c0-0.3-0.2-0.5-0.4-0.5
					l-5.3-1.1C68.2,249.8,67.7,250.2,67.6,250.8z"/>
				<path class="st0" d="M73.6,251L73.6,251c-0.3,0.3-0.4,0.9,0,1.2l3.1,3.5c0.1,0.2,0.3,0.2,0.5,0.1l0,0c0.1-0.2,0.1-0.4,0-0.5
					l-2.5-4C74.5,250.9,74,250.8,73.6,251z"/>
				<path class="st0" d="M67.3,252.5L67.3,252.5c0.4-0.4,1.1-0.4,1.5,0l3.3,4.3c0.2,0.2,0.2,0.5,0,0.7l0,0c-0.2,0.2-0.5,0.2-0.7,0
					l0,0l-4.2-3.4C66.9,253.6,66.9,252.9,67.3,252.5z"/>
				<path class="st0" d="M70.7,256.5L70.7,256.5c0.2-0.4,0.7-0.6,1.1-0.4l4.2,2c0.2,0.1,0.3,0.3,0.3,0.5l0,0
					c-0.1,0.2-0.3,0.3-0.5,0.2l-4.5-1.2C70.9,257.5,70.6,257,70.7,256.5z"/>
				<path class="st0" d="M5.7,260.9c-0.2,0.9,0.3,1.9,1.3,2.1c0.9,0.2,1.9-0.3,2.1-1.3c0.9,0.3,1.9-0.2,2.2-1.2
					c0.3-0.9-0.2-1.9-1.2-2.2c0,0,0,0-0.1,0c0,0-0.1,0-0.1,0c-0.4-0.1-1.7-1.1-2.4-1.2c-0.9-0.2-1.9,0.3-2.1,1.3l0,0
					C5.5,259.3,5.6,260.1,5.7,260.9z"/>
				<path class="st0" d="M7,261L7,261c0.6-0.1,1.1,0.3,1.2,0.9l0.2,5.4c0,0.3-0.1,0.5-0.4,0.5c0,0,0,0,0,0l0,0
					c-0.3,0.1-0.5-0.1-0.6-0.4v0L6,262.2C6,261.6,6.4,261,7,261L7,261z"/>
				<path class="st0" d="M7.4,266.9L7.4,266.9c0.3-0.4,0.8-0.4,1.2-0.1l3.6,3c0.2,0.1,0.3,0.3,0.2,0.5l0,0l0,0
					c-0.1,0.2-0.4,0.2-0.5,0l-4.1-2.3C7.3,267.9,7.1,267.3,7.4,266.9L7.4,266.9z"/>
				<path class="st0" d="M9.3,259.4L9.3,259.4c-0.2,0.6,0.1,1.2,0.6,1.4l0,0l5.3,1.3c0.3,0.1,0.5,0,0.6-0.3l0,0
					c0.1-0.3,0-0.5-0.3-0.6l-4.8-2.4C10.1,258.6,9.5,258.9,9.3,259.4z"/>
				<path class="st0" d="M15,261.1L15,261.1c-0.4,0.2-0.6,0.7-0.3,1.1l2.2,4.2c0.1,0.2,0.3,0.3,0.5,0.3l0,0c0.2-0.1,0.3-0.3,0.2-0.5
					l-1.4-4.5C15.9,261.2,15.5,261,15,261.1z"/>
				<path class="st0" d="M8.6,261.2L8.6,261.2c0.5-0.3,1.2-0.1,1.5,0.4l2.3,4.9c0.1,0.2,0.1,0.5-0.2,0.7l0,0
					c-0.2,0.1-0.5,0.1-0.7-0.2l-3.3-4.3C7.9,262.1,8.1,261.5,8.6,261.2z"/>
				<path class="st0" d="M11.3,266.5L11.3,266.5c0.1-0.5,0.6-0.7,1.1-0.6l4.5,1.4c0.2,0,0.4,0.2,0.3,0.4l0,0
					c-0.1,0.2-0.3,0.3-0.5,0.2l-4.7-0.6C11.6,267.3,11.2,267,11.3,266.5z"/>
				<path class="st0" d="M33,261.4l3.5,0.1c0.1,0,0.2-0.1,0.2-0.2c1.3-1.4,2.4-3,3.3-4.6c1.2-2.6,2.2-5.2,3-7.9
					c0.1-0.3,0.1-0.6-0.1-0.6l-9.7-0.8c-0.3,0-0.5,0.3-0.5,0.6c0,0,0.6,6.7,0.5,9c-0.1,2.1-0.2,4.3-0.2,4.3
					C32.9,261.3,33,261.4,33,261.4C33,261.4,33,261.4,33,261.4z"/>
				<path class="st0" d="M24.4,260.6l-3.5-0.2c-0.1,0-0.2-0.1-0.2-0.2c-1.2-1.5-2.2-3.1-2.9-4.9c-1-2.6-1.8-5.3-2.4-8.1
					c-0.1-0.3,0-0.6,0.2-0.6l9.8-0.1c0.2,0,0.5,0.3,0.5,0.6c0,0-1.1,6.6-1.1,8.9c0,2.1-0.1,4.3-0.1,4.3
					C24.5,260.5,24.5,260.6,24.4,260.6z"/>
				<path class="st0" d="M26.7,262.2l4,0.3c0.1,0,0.2-0.1,0.3-0.2l5.9-16.6c0.1-0.5-0.1-0.9-0.4-1l-13.2-0.8c-0.4,0-0.6,0.4-0.6,0.9
					l3.7,17.2C26.4,262.1,26.6,262.2,26.7,262.2L26.7,262.2z"/>
			</g>
		</g>
		<path class="st0" d="M246.1,227c-1.7-4.8-3.5-9.6-4-14.6c-0.5-1.9-0.7-4-1.7-5.8c-0.8-1.8-1.8-3.7-3.8-4.2
			c0.7-2.1,0.4-4.4,0.5-6.7c0-0.3-0.6-1-0.6-1.2c0.1-0.5,1-0.5,1.3-0.9c1-1.2,1-1.2,0.3-2.5c-0.5-1.1-0.3-2.5-1.5-3.2
			c-0.5-0.5-0.7-1.6-1.2-1.1c-0.3,0.3-2,0.5-2.3,0.8c-3.4-4.1-11.2-4.1-15.3-0.9v-10.1h-0.5V187c-1.7-1.7-3.2,3-4.4,4
			c-0.8,1.2-0.8,1.6,0.2,2.7c-0.1,4.3,0.1,8.9,3.5,12.1c-1.2-0.4-2.5-0.7-3.8-0.8c-0.9,0.1-1.8,0.4-2.6,1
			c-4.7-0.5-10.7-1.2-11.2-1.2l0,0c-1.2-0.9-2.3-2.1-2.9-3.4l-1.4-1.8c-0.2-0.2,0.1-0.7-0.1-0.9c-1.2-1.4-2.4-3.4-3.7-4.8
			c-0.1-0.2-0.8,0-0.9-0.1l-1.7-2.1l-0.3,0.2c-0.1,0-0.1-0.1-0.2-0.1c-0.7-1.5-1.3-3-1.6-4.6c-0.1-0.7-0.2-1.3-0.3-2
			c-0.3-0.6-0.8-1.1-1.2-1.6l0,1.6c-0.7-1.1-1.4-2.2-2-3.4c-0.2,0-0.3-0.1-0.5-0.2c0,0-0.1,0-0.1,0c-0.4-0.2-0.9-0.2-1.2-0.4
			c-0.5,0-0.9,0.1-1.4,0.3c0,0.1-0.4,0.4-0.5,0.5c0,0.4,0.1,0.7,0.1,1.1c0.1,0.3,0.1,0.7,0.2,1.1c-0.1,0.3-0.3-0.9-0.5-0.6
			s0,1.3,0,1.5c0.2,0.6,0.5,1.3,0.6,1.9c0.9,1.8,2.1,5,2.4,5.3c0.4,0.4,1.4,1.5,1.5,1.6c0.1,0.1-0.1,0.5,0,0.7
			c1.8,3.2,6.1,10.4,7.2,13.3l1-0.2c-0.4,1.6,1,2.5,1.5,3.9c1.6,2.2,4.1,1.9,6.4,2.6c0,0,0.1,0,0.1-0.1l8.9,4.4l0,0
			c0.9,0.9,1.8,1.6,2.8,2.3c0.1,3.5,0.5,7,0.8,10.5c2.6,4.5,3.1,9.9,1.3,14.8c-0.6,5.6-2.3,11.3-2.5,17c-0.1,1.5-0.7,3.1,0.2,4.6
			c-2.1,3.5-2.1,8.9,0.3,12.3c1.3,4,1.1,8.1,1.9,12.2c0.1,0.4,0,0.8-0.3,1.1c-1.1,2.5,0.1,5.7-0.2,8.4c-0.1,1.4-1.7,2.5-2.4,3.8
			c-2,1-3.9,2.2-4.4,4.6c0,2.2,2.2,2.6,3.9,3.1c2.9,1,6-1.1,8.5-2.5c0.4-0.6,1.1-1,1.8-1c1.7-0.1,3.1-1.2,3.7-2.7
			c0.5-1.1,0.4-2.3-0.3-3.2c-0.2-1.2-0.3-2.4-0.4-3.6c-0.6-3.4,0.2-7.1-1.4-10.2c0.1-4.7,0.9-9.5-1.3-13.8c0.2-1.3,0.3-2.8,0.6-4.1
			c0.5-0.6,0.8-1.3,0.8-2.1c0.2-2.9,2.3-5.3,1.9-8.2c0.8,2,0.3,4.6,0.7,6.7c0.8,1.3-0.3,2.3-0.3,3.5c-0.3,2.8,0.3,5.6,1.6,8
			c0.7,0.9-0.3,1.9,0.1,2.8c1.3,2.8,0.9,5.9,1.4,8.8c0.1,1.2-0.9,2.1-1.2,3.2c-0.2,2.9,0.1,5.8,0.2,8.7c-0.9,1.7-1.3,3.7-2.4,5.2
			c-1.5,1.2-2.5,5.3-0.8,6.4c1.5,0.2,4.2,0.7,5.7,0.9c1.7-0.9,3.9-1.3,4.8-3.2c0.3-1.4,2.3-1.6,2.2-3.2c0-2.2-1.3-4.4-0.3-6.7
			c0.6-2.9,1.8-5.8,1.3-8.8c0-0.7,0.1-1.5-0.6-2c-0.1-0.7-0.2-1.4-0.1-2.1c0.3-4.1,2-9.1,0.1-12.9c-0.2-0.5,0-0.9,0-1.4
			c-0.2-1.5,0-3.1,0.7-4.5c0.3-3.6-0.5-7.3,0.7-10.8c0.4-1.8-1.1-7.1,0.5-7.9c0.6-0.4,0.9-1.3,1.4-1.8c0.4-0.6,1.3-0.5,1.5-1.3
			c0.4-1.6,4.5-6.9,3.1-7.7c1.1-0.6,1.3-1.8,2-2.7l1-0.1c0,0,1-0.9,1.3-1.4c0.8-1.3,1-4.6,1.3-5.7c0,0-1.4-2.8-1.6-3.1
			C247.5,227.7,247,226.7,246.1,227z M237.8,232.7c-0.3,1-0.6,1.9-0.9,2.9c-0.1,0.2-0.1,0.4,0,0.5c0.2,0.5,0.2,1,0,1.5
			c-0.3,1-0.5,1.9-0.8,2.9c-0.1,0.2-0.2,0.4-0.3,0.5c-0.1-0.2-0.1-0.2-0.1-0.3c0.1-1.2-0.3-2.4-1.2-3.2c-0.1-0.1-0.1-0.2-0.2-0.4
			c-0.3-0.6-0.1-1.2-0.1-1.9c0-0.3,0-0.6,0-1c0.1-0.6,0.4-1.3,0.6-2c0-0.1,0.1-0.3,0.2-0.4c0.3-0.3,0.6-0.6,0.9-0.9s0.7-0.8,1.1-1.2
			c0.3,0.8,0.6,1.6,0.9,2.3C237.9,232.4,237.8,232.6,237.8,232.7z"/>
		<path class="st0" d="M413.8,238.8v-2.2c0-2.5-2-4.5-4.5-4.5h-1.7v-2.8c0-1.1-0.4-2.2-1-3l0.3-27.5h-0.6l-0.3,26.8
			c-1.8-1.7-4.6-1.8-6.5-0.3l1.6-18.3l-0.6,0l-1.6,18.9c-0.9,0.9-1.3,2.2-1.3,3.4v1.4c0-1.4-2.4,0-2.4,0l-1-3.6l-1.7-4.7
			c0.9-2.6,1-5.4,0.3-8l0.1-17.8h-0.6l-0.1,15.9c-0.6-1.4-1.5-2.7-2.5-3.8c0.1-1.2,0.2-2.3,0.1-3.5c-0.2-2-0.1-2.8-1.1-2.4
			s-4.1,0-5.6-0.1c-1-0.1-1.9-0.1-2.9,0c-0.6,0.3-1.1,0.9-1.2,1.6c-7.5,0.5-13.2,7-12.7,14.5c0.4,6.6,5.6,12,12.2,12.7
			c-0.2,0.6-0.4,1.2-0.7,2.1c-0.4,1.4-0.6,2.8-0.6,4.2l-1.3-1.1c-0.1-0.1-0.2-0.1-0.3-0.2c-0.2-0.1-2.1-1.9-2.3-1.8
			c-0.6,0-0.6,0.1-0.6,0.1c-0.2-0.1-0.4-0.1-0.5-0.1c-0.8-0.1-1.6-0.3-2.4-0.6l-0.4-0.2l-0.5-0.2c-0.1,0-0.2-0.1-0.4-0.1
			c-0.2,0-0.4,0-0.5,0c-0.2,0-0.4,0.2-0.5,0.4c0,0.2,0.1,0.5,0.3,0.6c0.2,0.1,0.4,0.2,0.6,0.3c0.6,0.2,1.1,0.4,1.7,0.6h-0.4
			c-0.1,0-0.2,0-0.3,0.1c-0.1,0.1-0.1,0.1-0.1,0.2c-0.1,0.3-0.1,0.7,0,1l-8.1-10.6l-7.1,5.6l9.7,12.7l1.4-0.6
			c0.2,0.4,0.5,0.7,0.9,0.8c0.5,0.1,1.3,0.9,1.6,1s1.2-0.4,1.3-0.1s-0.2,0.9-0.2,0.9c0.5,0.3,1.1,0.6,1.7,0.8
			c0.8,0.4,1.6,0.9,2.3,1.5c0.3,0.2,0.5,0.3,0.8,0.5c1,0.8,1.8,1.8,2.5,2.8c0.3,0.4,0.7,0.7,1.2,0.7c0.1,2.7,0.2,4.7,0.3,5.5
			c0.4,2.5,0.3,1.3,1,2.4c0.4,0.6,0.6,0.7,0.9,0.6c-0.1,0.1-0.1,0.3-0.2,0.5c-0.7,1.7-1.5,9.1-2.1,12s-0.9,10-1.2,11.3s0.2,3,0,4.4
			s1.3,0.6,0.3,1.7s-1.2,1.5-1.1,3.3c0.1,1.1,0.6,2.2,1.5,2.9c0.1,0.5,0,1-0.2,1.5c-0.3,0.7,0.2,4.5,0,5.1s0.7,1.5,0.4,2.6
			s0.7,1.3,0.4,2.3s1,1.7,0.5,2.6s-1.9,0.8-1.9,0.8c-0.8,0-1.6-0.1-2.4-0.2c-1.6-0.1-3.1,0.7-4,2c-0.2,0.5-0.3,1-0.2,1.5
			c0.8-0.2,8.6-1.1,17.8-2.2l2.3-0.3c-0.1-0.3-0.2-0.7-0.3-1l3.1,1.9l4.2,0.8c0,0,4.6-0.5,7.1-1.9s-1.1-1.7-1.6-3.8s0.6-3.7,0.6-5.1
			c-0.3-3.3-0.8-6.5-1.5-9.7c-0.3-1.1-0.4-2.3-0.2-3.5c0.1-0.8,0.2-0.8-0.8-1.3s1.4-1.6,1-2.1s-1.3-12.7-1.3-12.7
			c0.5-1-0.3-2.3,0.7-3.5s-0.3-0.5,0.1-3.8c0.2-1.4,0.2-2.7,0.1-4.1c0.7,0.4,1.5,0.6,2.3,0.6h7c1.5,0,2.9-0.7,3.7-1.9h2.6
			c1.5,0,1.6-1.7,1.7-7.1S414.8,240.5,413.8,238.8z M371.2,242.2c-0.1-0.3,0-1.2-0.2-1.5h0l0.4-0.2l-0.7-1c0.2,0.1,0.6,0,0.8,0.1
			c0.1,0.2,0.3,0.4,0.3,0.6c0.3,0.6,0.5,1.2,0.8,1.8C372,242.3,371.4,242.8,371.2,242.2L371.2,242.2z M391.6,308.3
			c0.1,0.3-2.5,0.6-4.7,0.9c0.1-0.5,0.2-1.2,0.4-2.1c0.5-2.3-0.6-9.2-0.2-10s-0.9-1.1-0.3-1.9s-0.6-1-0.6-2.2s-1.5-0.1-0.4-2
			s1.2-7.4,1.2-7.4s0.6,1.9,0.9,3.2c0.3,1.1,0.8,2.1,1.3,3.1c0.1,0.2,0.2,0.3,0.3,0.3c0,0.1-0.1,0.1-0.1,0.2c-0.5,0.9-0.5,2.1,0,3
			l-1.1-1.5c-0.7,0.3,0.9,0.9,0.4,1.6s1.1,2.9,1.1,2.9l0.9,3.6l1.6,4.9C392.1,305.9,391.8,307.1,391.6,308.3L391.6,308.3z"/>
	</g>
</g>
</svg>
