<?xml version="1.0" encoding="utf-8"?>
<!-- Generator: Adobe Illustrator 25.0.0, SVG Export Plug-In . SVG Version: 6.00 Build 0)  -->
<svg version="1.1" id="Слой_1" xmlns="http://www.w3.org/2000/svg" xmlns:xlink="http://www.w3.org/1999/xlink" x="0px" y="0px"
	 viewBox="0 0 942.2 308.6" style="enable-background:new 0 0 942.2 308.6;" xml:space="preserve">
<style type="text/css">
	.st0{fill:#FFFFFF;}
	.st1{fill:#E50303;}
</style>
<g id="_x38_d2b5847-a292-4896-b91e-b3a139497c1f">
	<g id="d5ecf833-b54a-4003-abbd-0cde88213cf8">
		<path class="st0" d="M-608.2,89h-18V1.7h18v34.4l32.2-34.4h22l-37.1,40l43.5,47.3h-23l-37.6-40.3V89z"/>
		<path class="st0" d="M-518,89h-18V1.7h38.2c9.4,0,16.8,2.5,22.2,7.4s8.2,11.2,8.3,18.9c0,7.9-2.8,14.2-8.3,19.1
			s-12.9,7.3-22.2,7.3H-518V89z M-518,17.5v21.6h19c4.3,0,7.7-0.9,10.1-2.8c2.4-1.9,3.8-4.9,3.6-8c0.2-3.1-1.2-6.1-3.6-8
			c-2.4-1.9-5.8-2.8-10.1-2.8L-518,17.5z"/>
		<path class="st0" d="M-452.1,89H-471l37.5-87.8h17.2l37.5,87.8h-19.1l-8.6-20.2h-37L-452.1,89z M-425,23.7L-437.8,54h25.6
			L-425,23.7z"/>
		<path class="st0" d="M-329,90.7c-13.6,0-24.9-4.2-33.9-12.7c-9-8.7-13.5-19.5-13.5-32.7c0-13.3,4.5-24.2,13.4-32.6S-342.8,0-329,0
			c8-0.1,16,1.8,23.1,5.5v18.1c-6.8-4.5-14.8-6.9-23-6.7c-7.8-0.2-15.3,2.7-20.9,8.1c-5.5,5.3-8.2,12.1-8.2,20.4
			c0,8.3,2.8,15.1,8.5,20.6c5.6,5.3,12.7,8,21.4,8c9.6,0,17.6-2.5,24-7.6v18C-311.2,88.6-319.5,90.7-329,90.7z"/>
		<path class="st0" d="M-269.8,89h-18V1.7h18v32.6h39.5V1.7h17.9V89h-17.9V50.7h-39.5V89z"/>
		<path class="st0" d="M-181.8,89h-18.9l37.5-87.8h17.2l37.5,87.8h-19.1l-8.6-20.2h-37L-181.8,89z M-154.7,23.7L-167.6,54h25.6
			L-154.7,23.7z"/>
		<path class="st0" d="M-79,89h-20.7l27.4-37.3c-5.3-1.5-10-4.6-13.4-9c-3.2-4.4-4.9-9.7-4.8-15.1c0-7.6,2.7-13.8,8.1-18.6
			s12.7-7.2,22-7.2H-20V89h-18V53.7h-15.3L-79,89z M-59.5,38.7H-38V17.4h-21.5c-4.1,0-7.3,0.9-9.6,2.8c-2.3,1.9-3.6,4.8-3.4,7.8
			c-0.2,3,1.1,5.9,3.4,7.8C-66.8,37.7-63.6,38.6-59.5,38.7L-59.5,38.7z"/>
		<path class="st0" d="M-608.2,208.6h-18v-87.2h63.1v16.1h-45.1V208.6z"/>
		<path class="st0" d="M-504.1,208.6h-44v-87.2h41.1c8.1,0,14.5,1.9,19.3,5.7c4.8,3.8,7.2,9.2,7.2,16.1c0.1,3.9-1,7.6-3.1,10.8
			c-1.9,2.9-4.7,5.1-7.9,6.5c4.9,1.1,9.3,3.8,12.5,7.7c3.5,4.1,5.3,9.3,5.3,15.6c0.2,6.9-2.8,13.6-8.3,17.9
			C-487.4,206.3-494.7,208.6-504.1,208.6z M-530.1,136.4v19.2h20.2c3.7,0,6.7-0.8,8.8-2.5c2.1-1.7,3.3-4.3,3.2-7
			c0.1-2.8-1-5.4-3.2-7.2c-2.1-1.7-5.1-2.6-8.8-2.6L-530.1,136.4z M-530.1,170.4v22.8h22.6c4.5,0,8-1,10.5-2.9
			c2.5-2,3.8-4.8,3.8-8.4c0.2-3.3-1.2-6.4-3.8-8.5c-2.5-2-6-3-10.5-3L-530.1,170.4z"/>
		<path class="st0" d="M-449.1,208.6H-468l37.5-87.7h17.2l37.5,87.7h-19.1l-8.6-20.2h-37L-449.1,208.6z M-422,143.3l-12.9,30.3h25.6
			L-422,143.3z"/>
		<path class="st0" d="M-343.4,208.6h-18v-87.2h38.2c9.4,0,16.8,2.5,22.3,7.4s8.2,11.2,8.2,18.9c0,7.9-2.7,14.2-8.2,19.1
			s-12.9,7.3-22.3,7.3h-20.2V208.6z M-343.4,137.1v21.7h19c4.3,0,7.7-0.9,10.1-2.8c4.4-3.9,4.9-10.7,0.9-15.1
			c-0.3-0.3-0.6-0.6-0.9-0.9c-2.4-1.9-5.8-2.8-10.1-2.8L-343.4,137.1z"/>
		<path class="st0" d="M-295.9,208.6v-16.1h8.6c3.9-6,6.8-13.5,8.8-22.4c1.8-8.7,2.7-20.3,2.7-34.9v-13.8h61.5v71.1h12v16.1H-295.9z
			 M-267.4,192.6h35.1v-55.1h-25.6c0.1,10.4-0.6,20.7-2.1,31C-261.3,176.8-263.8,184.9-267.4,192.6z"/>
		<path class="st0" d="M-172.1,208.6h-15.1v-87.2h18v56.8l42.4-56.8h15.5v87.2h-17.8v-57.2L-172.1,208.6z"/>
		<path class="st0" d="M-79,208.6h-20.7l27.4-37.3c-5.3-1.5-10.1-4.6-13.4-9c-3.2-4.4-4.9-9.7-4.8-15.1c0-7.6,2.7-13.8,8.1-18.6
			s12.7-7.1,22-7.2H-20v87.2h-18v-35.3h-15.3L-79,208.6z M-59.5,158.3H-38v-21.2h-21.5c-4.1,0-7.3,0.9-9.6,2.8
			c-4.3,4-4.6,10.7-0.6,15c0.2,0.2,0.4,0.4,0.6,0.6C-66.8,157.4-63.6,158.3-59.5,158.3L-59.5,158.3z"/>
		<path class="st0" d="M-612.2,307.7h-16.7v-50.2h16.7c8.3,0,14.9,2.3,20,7s7.6,10.7,7.7,18.1c0,7.5-2.6,13.5-7.7,18.1
			S-604,307.7-612.2,307.7z M-623.5,262.3v40.6h10.7c7,0,12.6-1.8,16.7-5.5s6.2-8.6,6.1-14.8c0-6.2-2-11.1-6.1-14.8
			s-9.7-5.5-16.7-5.5L-623.5,262.3z"/>
		<path class="st0" d="M-567.3,307.7h-5.4v-50.2h5.4V307.7z"/>
		<path class="st0" d="M-530.6,308.6c-6.9,0.2-13.6-2.5-18.6-7.3c-5-4.9-7.5-11.1-7.5-18.6c0-7.6,2.5-13.8,7.5-18.6
			c5-4.9,11.8-7.6,18.8-7.4c6.5,0,11.9,1.6,16.2,4.8v5.4c-4.6-3.5-10.2-5.3-16-5.2c-5.6-0.1-11,2-15,6c-4,3.9-6,9-6,15.1
			c-0.2,5.6,2,11.1,5.9,15.1c3.9,3.9,9.2,6,14.7,5.9c6.1,0,11-1.7,14.5-5.2v-19.5h5.3v21.6c-2.4,2.6-5.3,4.6-8.6,5.9
			C-522.9,307.9-526.7,308.6-530.6,308.6z"/>
		<path class="st0" d="M-492.8,307.7h-5.4v-50.2h5.4L-492.8,307.7z"/>
		<path class="st0" d="M-459.6,307.7h-5.4v-45.4h-17.6v-4.8h40.8v4.8h-17.8V307.7z"/>
		<path class="st0" d="M-435.7,307.7h-5.6l22.8-50.5h5l22.9,50.5h-5.7l-6.3-13.9h-26.8L-435.7,307.7z M-416.1,263.9l-11.6,25.3h23.2
			L-416.1,263.9z"/>
		<path class="st0" d="M-346.3,307.7h-34v-50.2h5.4v45.4h28.6L-346.3,307.7z"/>
		<path class="st0" d="M-315.2,307.7h-5.6l22.8-50.5h5l22.9,50.5h-5.7l-6.3-13.9H-309L-315.2,307.7z M-295.5,263.9l-11.7,25.3h23.2
			L-295.5,263.9z"/>
		<path class="st0" d="M-240.5,308.6c-6.9,0.2-13.7-2.5-18.6-7.3c-5-4.9-7.5-11.1-7.5-18.6c0-7.6,2.5-13.8,7.5-18.6
			c5-4.9,11.8-7.6,18.8-7.4c6.5,0,11.9,1.6,16.2,4.8v5.4c-4.6-3.4-10.2-5.3-15.9-5.2c-5.6-0.1-11,2-15,6c-4,3.9-6,9-6,15.1
			c-0.2,5.6,1.9,11.1,5.8,15.1c3.9,3.9,9.2,6,14.7,5.9c6.1,0,11-1.7,14.5-5.2v-19.5h5.3v21.6c-2.4,2.6-5.3,4.6-8.6,5.9
			C-232.8,307.9-236.6,308.6-240.5,308.6z"/>
		<path class="st0" d="M-174.3,307.7h-36.2v-50.2h35.1v4.8H-205v16.1h24.3v4.8H-205v19.7h30.8L-174.3,307.7z"/>
		<path class="st0" d="M-158.4,307.7h-5.3v-50.2h4.7l32.3,41v-41h5.3v50.2h-4.6l-32.4-41.2V307.7z"/>
		<path class="st0" d="M-85.9,308.6c-7,0.2-13.8-2.5-18.8-7.3c-5-4.9-7.4-11.1-7.4-18.6c0-7.6,2.5-13.8,7.5-18.6
			c5-4.9,11.8-7.6,18.8-7.4c5-0.1,10,1.2,14.3,3.7v5.5c-4.2-2.8-9.2-4.2-14.3-4.2c-11.7,0.3-21.1,10-20.8,21.7
			c0.1,5.4,2.3,10.5,6,14.3c4,4,9.4,6.1,15,6c5.5,0.2,10.9-1.6,15.2-5v5.5C-74.7,307.1-79.9,308.6-85.9,308.6z"/>
		<path class="st0" d="M-39.9,307.7h-5.4v-23l-19.8-27.2h6.3l16.4,22.2l16.4-22.2h6.1l-19.9,27.1L-39.9,307.7z"/>
		<path class="st0" d="M-962.2,2.9V307h45.2V163.5l242.8,144.2v-51.6L-917,111V46.8h198.6V89h44.3V2.4c0-0.3-0.3-0.6-0.6-0.6
			c0,0,0,0,0,0H-961C-961.6,1.7-962.2,2.3-962.2,2.9z"/>
	</g>
</g>
<g id="_x38_d2b5847-a292-4896-b91e-b3a139497c1f_1_">
	<g id="d5ecf833-b54a-4003-abbd-0cde88213cf8_1_">
		<path class="st0" d="M354,89h-18V1.7h18v34.4l32.2-34.4h22l-37.1,40L414.6,89h-23L354,48.7V89z"/>
		<path class="st0" d="M444.2,89h-18V1.7h38.2c9.4,0,16.8,2.5,22.2,7.4s8.2,11.2,8.3,18.9c0,7.9-2.8,14.2-8.3,19.1
			s-12.9,7.3-22.2,7.3h-20.3V89z M444.2,17.4v21.6h19c4.3,0,7.7-0.9,10.1-2.8c2.4-1.9,3.8-4.9,3.6-8c0.2-3.1-1.2-6.1-3.6-8
			c-2.4-1.9-5.8-2.8-10.1-2.8L444.2,17.4z"/>
		<path class="st0" d="M510.1,89h-18.9l37.5-87.8h17.2L583.4,89h-19.1l-8.6-20.2h-37L510.1,89z M537.2,23.7L524.3,54h25.6
			L537.2,23.7z"/>
		<path class="st0" d="M633.2,90.7c-13.6,0-24.9-4.2-33.9-12.7c-9-8.7-13.5-19.6-13.5-32.7c0-13.3,4.5-24.2,13.4-32.6
			S619.4,0,633.2,0c8-0.1,16,1.8,23.1,5.5v18.1c-6.8-4.5-14.8-6.9-23-6.7c-7.8-0.2-15.3,2.7-20.9,8.1c-5.5,5.3-8.2,12.1-8.2,20.4
			c0,8.3,2.8,15.1,8.5,20.6c5.6,5.3,12.7,8,21.4,8c9.6,0,17.6-2.5,24-7.6v18C650.9,88.6,642.6,90.7,633.2,90.7z"/>
		<path class="st0" d="M692.4,89h-18V1.7h18v32.6h39.5V1.7h17.9V89h-17.9V50.7h-39.5V89z"/>
		<path class="st0" d="M780.4,89h-18.9L799,1.2h17.2L853.7,89h-19.1L826,68.7h-37L780.4,89z M807.5,23.7L794.6,54h25.6L807.5,23.7z"
			/>
		<path class="st0" d="M883.2,89h-20.7l27.4-37.3c-5.3-1.5-10-4.6-13.4-9c-3.2-4.4-4.9-9.7-4.8-15.1c0-7.6,2.7-13.8,8.1-18.6
			s12.7-7.2,22-7.2h40.5V89h-18V53.7h-15.3L883.2,89z M902.7,38.6h21.5V17.4h-21.5c-4.1,0-7.3,0.9-9.6,2.8c-2.3,1.9-3.6,4.8-3.4,7.8
			c-0.2,3,1.1,5.9,3.4,7.8C895.4,37.7,898.6,38.6,902.7,38.6L902.7,38.6z"/>
		<path class="st0" d="M354,208.6h-18v-87.2h63.1v16.1H354V208.6z"/>
		<path class="st0" d="M458.1,208.6h-44v-87.2h41.1c8.1,0,14.5,1.9,19.3,5.7c4.8,3.8,7.2,9.2,7.2,16.1c0.1,3.9-1,7.6-3.1,10.8
			c-1.9,2.9-4.7,5.1-7.9,6.5c4.9,1.1,9.3,3.8,12.5,7.7c3.5,4.1,5.3,9.3,5.3,15.6c0.2,6.9-2.8,13.6-8.3,17.9
			C474.8,206.3,467.4,208.6,458.1,208.6z M432.1,136.3v19.2h20.3c3.7,0,6.7-0.8,8.8-2.5c2.1-1.7,3.3-4.3,3.2-7
			c0.1-2.8-1-5.4-3.2-7.2c-2.1-1.7-5.1-2.6-8.8-2.6L432.1,136.3z M432.1,170.3v22.8h22.6c4.5,0,8-1,10.5-2.9c2.5-2,3.8-4.8,3.8-8.4
			c0.2-3.3-1.2-6.4-3.8-8.5c-2.5-2-6-3-10.5-3L432.1,170.3z"/>
		<path class="st0" d="M513.1,208.6h-18.9l37.5-87.7h17.2l37.5,87.7h-19.1l-8.6-20.2h-37L513.1,208.6z M540.2,143.3l-12.9,30.3h25.6
			L540.2,143.3z"/>
		<path class="st0" d="M618.8,208.6h-18v-87.2H639c9.4,0,16.8,2.5,22.3,7.3c5.4,4.9,8.2,11.2,8.2,18.9c0,7.9-2.7,14.2-8.2,19.1
			s-12.9,7.3-22.3,7.3h-20.2V208.6z M618.8,137.1v21.7h19c4.3,0,7.7-0.9,10.1-2.8c4.4-3.9,4.9-10.7,0.9-15.1
			c-0.3-0.3-0.6-0.6-0.9-0.9c-2.4-1.9-5.8-2.8-10.1-2.8L618.8,137.1z"/>
		<path class="st0" d="M666.3,208.6v-16.1h8.6c3.9-6,6.8-13.5,8.8-22.4c1.8-8.7,2.7-20.3,2.7-34.9v-13.8h61.5v71.1h12v16.1H666.3z
			 M694.8,192.5h35.1v-55.1h-25.6c0.1,10.4-0.6,20.7-2.1,31C700.9,176.8,698.4,184.9,694.8,192.5z"/>
		<path class="st0" d="M790.1,208.6H775v-87.2h18v56.8l42.4-56.8h15.5v87.2H833v-57.2L790.1,208.6z"/>
		<path class="st0" d="M883.2,208.6h-20.7l27.4-37.3c-5.3-1.5-10.1-4.6-13.4-9c-3.2-4.4-4.9-9.7-4.8-15.1c0-7.6,2.7-13.8,8.1-18.6
			c5.4-4.7,12.7-7.1,22-7.2h40.5v87.2h-18v-35.3h-15.3L883.2,208.6z M902.7,158.3h21.5v-21.2h-21.5c-4.1,0-7.3,0.9-9.6,2.8
			c-4.3,4-4.6,10.7-0.6,15c0.2,0.2,0.4,0.4,0.6,0.6C895.4,157.3,898.6,158.3,902.7,158.3L902.7,158.3z"/>
		<path class="st0" d="M350,307.7h-16.7v-50.2H350c8.3,0,14.9,2.3,20,7s7.6,10.7,7.7,18.1c0,7.5-2.6,13.5-7.7,18.1
			S358.2,307.7,350,307.7z M338.7,262.3v40.6h10.7c7,0,12.6-1.8,16.7-5.5s6.2-8.6,6.1-14.8c0-6.2-2-11.1-6.1-14.8
			c-4.1-3.6-9.7-5.5-16.7-5.5L338.7,262.3z"/>
		<path class="st0" d="M394.9,307.7h-5.4v-50.2h5.4V307.7z"/>
		<path class="st0" d="M431.6,308.5c-6.9,0.2-13.6-2.5-18.6-7.3c-5-4.9-7.5-11.1-7.5-18.6c0-7.6,2.5-13.8,7.5-18.6
			c5-4.9,11.8-7.6,18.8-7.4c6.5,0,11.9,1.6,16.2,4.8v5.4c-4.6-3.5-10.2-5.3-16-5.2c-5.6-0.1-11,2-15,6c-4,3.9-6,9-6,15.1
			c-0.2,5.6,2,11.1,5.9,15.1c3.9,3.9,9.2,6,14.7,5.9c6.1,0,11-1.7,14.5-5.2v-19.5h5.3v21.6c-2.4,2.6-5.3,4.6-8.6,5.9
			C439.3,307.8,435.5,308.6,431.6,308.5z"/>
		<path class="st0" d="M469.4,307.7H464v-50.2h5.4L469.4,307.7z"/>
		<path class="st0" d="M502.6,307.7h-5.4v-45.4h-17.6v-4.8h40.8v4.8h-17.8V307.7z"/>
		<path class="st0" d="M526.5,307.7h-5.6l22.8-50.5h5l22.9,50.5h-5.7l-6.3-13.9h-26.8L526.5,307.7z M546.1,263.8l-11.6,25.3h23.2
			L546.1,263.8z"/>
		<path class="st0" d="M615.9,307.7h-34v-50.2h5.4v45.4h28.6L615.9,307.7z"/>
		<path class="st0" d="M647,307.7h-5.6l22.8-50.5h5l22.9,50.5h-5.7l-6.3-13.9h-26.8L647,307.7z M666.6,263.8L655,289.2h23.2
			L666.6,263.8z"/>
		<path class="st0" d="M721.7,308.5c-6.9,0.2-13.7-2.5-18.6-7.3c-5-4.9-7.5-11.1-7.5-18.6c0-7.6,2.5-13.8,7.5-18.6
			c5-4.9,11.8-7.6,18.8-7.4c6.5,0,11.9,1.6,16.2,4.8v5.4c-4.6-3.4-10.2-5.3-15.9-5.2c-5.6-0.1-11,2-15,6c-4,3.9-6,9-6,15.1
			c-0.2,5.6,1.9,11.1,5.8,15.1c3.9,3.9,9.2,6,14.7,5.9c6.1,0,11-1.7,14.5-5.2v-19.5h5.3v21.6c-2.4,2.6-5.3,4.6-8.6,5.9
			C729.4,307.8,725.6,308.6,721.7,308.5z"/>
		<path class="st0" d="M787.9,307.7h-36.2v-50.2h35.1v4.8h-29.7v16.1h24.3v4.8h-24.3v19.7h30.8L787.9,307.7z"/>
		<path class="st0" d="M803.8,307.7h-5.3v-50.2h4.7l32.3,41v-41h5.3v50.2h-4.6l-32.4-41.2V307.7z"/>
		<path class="st0" d="M876.2,308.5c-7,0.2-13.8-2.5-18.8-7.3c-5-4.9-7.4-11.1-7.4-18.6c0-7.6,2.5-13.8,7.5-18.6
			c5-4.9,11.8-7.6,18.8-7.4c5-0.1,10,1.2,14.3,3.7v5.5c-4.2-2.8-9.2-4.2-14.3-4.2c-11.7,0.3-21.1,10-20.8,21.7
			c0.1,5.4,2.3,10.5,6,14.3c4,4,9.4,6.1,15,6c5.5,0.2,10.9-1.6,15.2-5v5.5C887.5,307.1,882.3,308.5,876.2,308.5z"/>
		<path class="st0" d="M922.2,307.7h-5.4v-23L897,257.5h6.3l16.4,22.2l16.4-22.2h6.1l-19.9,27.1L922.2,307.7z"/>
		<path class="st1" d="M0,2.9V307h45.2V163.4L288,307.7v-51.6L45.1,111V46.7h198.6V89H288V2.3c0-0.3-0.3-0.6-0.6-0.6c0,0,0,0,0,0
			H1.2C0.5,1.7,0,2.2,0,2.9z"/>
	</g>
</g>
</svg>
